<svg width="150" height="150" viewBox="0 0 150 150" fill="none" xmlns="http://www.w3.org/2000/svg">
<path d="M45.1661 134.017C43.7885 135.031 42.6249 132.076 40.5707 134.463C38.2011 137.215 37.3438 140.271 33.7821 141.952C33.1741 142.239 28.3086 143.064 30.1053 142.029C32.4851 140.658 35.418 140.443 36.7187 137.643C36.9724 137.095 37.953 135.192 37.3064 134.613C36.7256 134.094 35.973 134.736 35.5077 134.012C34.9205 133.097 35.7576 127.021 34.3391 127.312C32.2939 127.732 31.6667 130.375 31.2678 131.973C30.921 133.362 29.7232 132.001 28.819 132.795C27.9433 133.564 27.7957 134.678 27.2971 135.668C25.9289 138.388 23.5609 139.55 20.4758 139.466C18.7092 139.466 14.9 136.546 17.871 136.609C20.6455 136.668 23.3896 139.346 25.6833 135.908C26.4973 134.687 26.9272 132.587 25.6001 131.607C24.6367 130.896 25.4059 129.792 25.4059 128.876C25.4062 127.189 21.2559 125.963 19.9015 125.202C18.8997 124.639 16.3875 124.802 16.6956 123.205C16.8688 122.308 16.0972 121.53 15.1838 121.697C12.3436 122.217 10.7722 124.008 10.7875 126.903C10.7915 127.665 11.6722 133.454 9.37437 129.711C8.32015 127.994 9.10874 124.779 10.1339 123.198C11.4358 121.189 15.7691 121.508 16.3906 119.501C16.5861 118.869 15.4174 117.294 16.8944 117.328C18.198 117.358 19.8645 116.824 20.8887 116.008C23.2214 114.15 19.7233 113.89 18.5191 113.242C17.6294 112.763 16.5842 113.021 15.7705 112.607C14.8288 112.129 15.2785 110.695 13.7072 110.909C10.3479 111.368 7.9451 113.966 7.18071 117.123C6.56719 119.656 5.34622 118.067 6.0942 116.224C7.02969 113.919 8.49347 111.961 10.5326 110.469C11.8861 109.479 17.1398 108.167 16.6782 105.876C16.4673 104.828 14.7972 104.623 15.7508 103.336C16.5144 102.306 17.3512 100.823 17.3958 99.5089C17.4642 97.4919 14.924 96.1983 15.3582 97.8403C16.0209 100.348 12.552 102.923 11.1733 104.5C8.97323 107.017 7.02917 109.62 5.51628 112.602C2.89007 117.777 1.68895 126.733 5.74889 131.586C6.54889 132.542 8.30961 136.489 7.36704 137.673C6.59746 138.639 6.94086 139.827 7.8385 140.596C9.13985 141.71 9.53509 140.299 10.8288 140.221C13.4575 140.064 15.9012 142.348 17.9808 143.501C20.2477 144.758 23.043 145.449 25.6456 145.308C31.0511 145.015 35.3418 144.58 40.1819 141.859C42.9949 140.278 44.9262 137.697 47.6146 135.962C48.3512 135.487 53.2215 135.371 52.3327 134.183C50.6611 131.949 47.13 132.572 45.1661 134.017Z" fill="black"/>
<path d="M56.7751 74.5454C59.1334 74.5775 60.3861 76.5248 60.6489 78.7032C61.3378 84.4111 59.7397 90.7981 67.4279 91.9585C71.0003 92.4979 78.667 91.7592 77.6325 97.1544C77.2496 99.1516 80.6308 96.8791 80.8012 95.3003C81.0193 93.2796 77.8992 90.9174 78.5782 89.4953C80.6191 85.2221 65.9497 88.4864 65.9874 88.5485C65.2045 87.2579 75.3342 85.6827 76.1162 85.4761C77.4392 85.1264 79.2066 82.9039 77.3868 81.948C75.952 81.1945 77.3591 79.1636 77.3828 77.9309C77.3811 77.9991 77.3691 78.7383 77.383 77.9274C77.383 74.7696 73.9269 76.4216 72.2012 76.6304C70.6695 76.8158 70.5676 73.8274 68.5179 76.2181C66.5448 78.5199 66.8833 82.1444 65.1715 84.6869C63.0105 87.8966 64.642 83.4353 64.9387 82.3996C65.4652 80.5623 68.0164 75.4279 64.9004 74.2181C63.9224 73.8385 63.3626 74.9642 62.447 73.9929C61.4819 72.9691 60.2177 72.3456 58.8082 72.2035C57.1907 72.0408 54.2758 74.5115 56.7751 74.5454Z" fill="black"/>
<path d="M4.00016 69.2548C4.09711 74.0464 4.1525 78.474 4.01563 79.8743C4.01563 79.9191 4.01632 79.9444 4.01736 79.9577C4.06091 82.8924 6.38933 85.7697 9.31502 84.0039C11.9887 82.39 16.2833 83.7573 18.5124 82.1312C29.3591 74.2182 9.23953 79.8005 9 77C8.37322 74.5444 7.94412 71.846 8.00029 69.2548V0H4.00032L4.00016 69.2548C4.17008 69.5 3.99394 69.2551 4.00016 69.2548Z" fill="black"/>
<path d="M23.8178 84.0928C22.0463 86.9801 21.6179 93.7789 26.9771 93.0745C29.0095 92.8076 30.2675 90.5356 29.4347 88.7164C28.316 86.2735 26.8515 88.4566 25.8809 89.3015C24.5775 90.4361 25.9146 87.0248 26.0254 86.8738C27.4521 84.9326 28.7463 83.2198 30.9237 82.0316C35.2722 79.6587 40.0463 80.462 44.2862 82.6359C49.0232 85.0648 50.5757 88.7693 54.0527 92.3113C55.8068 94.0983 55.6909 91.6683 55.0635 90.5678C53.8737 88.4799 52.3784 86.493 50.7326 84.7354C47.1232 80.8805 42.3443 78.0701 36.9531 77.9102C32.5574 77.2523 26.0817 80.4033 23.8178 84.0928Z" fill="black"/>
<path d="M36.953 77.91C39.1865 77.9762 36.5393 77.8481 36.953 77.91Z" fill="black"/>
<path d="M55.9384 104.921C55.3491 103.193 52.8043 102.484 51.3069 101.893C47.3538 100.332 43.3272 99.7136 39.2849 98.6636C36.3343 97.8973 26.3034 98.196 20.2181 101.444C19.6715 101.736 15.6239 104.969 18.8056 104.355C20.5459 104.019 22.4714 103.072 24.1569 102.484C30.888 100.136 38.2761 100.969 44.892 103.1C46.9155 103.752 48.9572 104.366 50.8517 105.344C52.2321 106.057 53.593 107.68 55.0406 108.15C56.4311 108.6 56.132 105.488 55.9384 104.921Z" fill="black"/>
<path d="M64.704 145.619C62.6526 144.22 64.1005 142.233 62.5201 141.053C61.5327 140.316 59.3199 142.72 57.6314 142.094C56.773 141.776 54.0231 138.333 56.0045 137.924C57.4733 137.621 59.4629 141.768 60.8638 137.713C61.6055 135.565 58.8435 133.209 56.792 133.427C49.4407 134.717 52.4684 141.49 54.7776 143.992C57.7177 147.178 62.1439 146.553 64.7574 149.865C65.4468 150.74 66.9073 147.121 64.704 145.619Z" fill="black"/>
<path d="M11.634 94.1517C11.9245 94.1399 10.9221 94.2148 11.634 94.1517Z" fill="black"/>
<path d="M11.6349 97.1518C14.7075 97.0269 18.1418 93.9982 16.5664 90.7612C15.5251 88.6217 10.8948 88.1862 11.17 91.2795C11.2911 92.641 13.2863 95.1185 9.96055 93.8692C7.23497 92.8453 7.5967 89.8425 9.25631 88.1395C10.9845 86.366 5.95906 86.1824 5.41363 85.3107C4.24621 83.4434 0.521199 83.5244 2.38924 85.3351C5.64314 88.4896 4.30459 97.8012 11.6349 97.1518Z" fill="black"/>
<path d="M63.1969 98.0286C59.5431 95.633 55.5326 94.1595 51.2504 93.2672C50.5745 93.1264 47.1552 91.8043 46.8723 93.1411C46.6296 94.2868 49.6482 94.4733 50.0016 94.5413C57.4976 95.9832 65.862 100.312 69.1833 107.457C69.937 109.078 70.6115 110.893 70.8307 112.673C71.0743 114.65 70.1276 117.031 70.8218 118.921C72.4892 123.458 73.8203 116.432 73.7628 115.055C74.294 108.087 68.687 101.628 63.1969 98.0286Z" fill="black"/>
<path d="M40.4499 93.1023C41.8855 94.6376 43.0472 97.2192 44.7995 98.4286C45.2896 98.7669 48.6304 100.449 48.6318 98.7995C48.6355 94.9421 42.2007 89.2051 39.5887 86.6221C38.1199 85.1693 36.1979 82.9959 34.0656 82.5138C33.0965 82.295 30.3254 83.2488 30.3242 84.4817C30.3228 85.7133 34.0632 87.4645 34.9206 88.1153C36.9335 89.643 38.7227 91.2553 40.4499 93.1023Z" fill="black"/>
<path d="M51.8398 110.457C51.8758 109.96 51.8443 111.081 51.8398 110.457Z" fill="black"/>
<path d="M48.9351 106.061C47.4395 105.527 48.6922 110.988 48.848 111.623C50.2038 117.144 47.957 123.905 45.7001 128.874C45.4942 129.327 44.2553 134.468 46.3015 131.975C48.1087 129.772 49.2298 127.082 50.2382 124.461C51.968 119.962 51.8759 115.185 51.8401 110.457C51.9934 108.336 50.9335 106.773 48.9351 106.061Z" fill="black"/>
<path d="M33.779 108.17C36.3656 108.17 33.8106 106.112 32.9532 105.731C31.462 105.067 29.5974 104.663 27.9597 104.859C24.0976 105.323 20.5506 106.51 17.1745 108.406C13.4271 110.511 21.87 109.189 22.5986 109.356C24.5297 109.801 26.4012 111.527 28.3696 110.211C30.1236 109.039 27.3453 108.469 27.9272 107.546C28.4263 106.755 32.5856 108.417 33.779 108.17Z" fill="black"/>
<path d="M39.697 133.146C42.6668 131.505 44.8123 123.977 44.5035 121.009C44.5035 118.182 43.2432 113.229 41.5911 118.11C41.4574 118.505 42.3274 122.846 41.5695 122.368C40.421 121.642 39.5186 119.614 38.6673 122.223C38.0071 124.248 40.0124 126.429 39.7618 128.539C39.7226 128.869 37.8125 134.186 39.697 133.146Z" fill="black"/>
<path d="M56.865 98.252C55.7093 98.7494 57.0633 103.714 57.1554 104.88C57.6526 111.19 55.9387 118.138 53.2831 123.85C52.4389 125.666 51.4436 127.534 50.374 129.231C50.7253 128.674 48.6309 132.891 50.5176 131.309C52.5921 129.57 54.1209 125.756 55.1252 123.309C57.5062 117.507 58.803 111.965 58.803 105.676C58.8649 104.866 58.6442 97.4857 56.865 98.252Z" fill="black"/>
<path d="M62.7022 123.982C63.6272 120.806 57.6829 121.48 56.9982 124.503C56.2962 127.599 60.436 128.067 62.4148 128.493C67.104 128.619 65.7672 122.884 63.1146 125.419C62.487 125.853 60.2348 126.714 61.1782 125.547C61.6658 124.945 62.4559 124.828 62.7022 123.982Z" fill="black"/>
<path d="M3.97084 139.532C-0.0904872 140.059 2.32712 145.915 5.54974 145.914C9.97676 145.905 7.79609 139.035 3.97084 139.532Z" fill="black"/>
<path d="M20.2883 99.114C22.212 98.3182 24.0828 97.4231 26.0246 96.6556C29.006 95.4773 33.5493 94.0743 36.7937 94.4478C36.8357 94.4449 36.8606 94.442 36.8779 94.4389C37.6687 94.3367 40.1732 93.5047 38.0665 92.8614C36.9278 92.5137 34.5548 92.8953 33.3856 93.199C29.3105 94.2577 25.4336 95.268 21.617 97.1143C20.9544 97.4347 17.8681 100.115 20.2883 99.114Z" fill="black"/>
<path d="M26.3472 123.869C24.3583 124.129 22.6641 123.371 20.7021 122.992C19.7823 122.814 18.3978 123.713 19.805 124.229C21.6193 124.894 22.9662 125.789 24.8491 126.305C24.8989 126.323 24.9786 126.347 25.1008 126.377C25.3493 126.376 25.4263 126.362 25.4117 126.343C26.9041 126.027 28.197 123.626 26.3472 123.869Z" fill="black"/>
<path d="M58.8353 90.496C57.4809 91.5447 57.8205 94.0748 59.8128 94.0783C63.2446 94.0847 61.1869 88.6756 58.8353 90.496Z" fill="black"/>
<path d="M2.79084 139.016C4.02254 138.444 4.92555 137.161 2.96298 137.137C2.9457 137.136 2.89609 137.136 2.7924 137.138C2.65293 137.153 2.62703 137.159 2.65278 137.16C0.997833 137.484 -0.077498 140.347 2.79084 139.016Z" fill="black"/>
<path d="M0.000115396 146.857C0.0246562 148.602 2.59971 147.811 2.61043 146.395C2.62373 144.653 -0.0201048 145.397 0.000115396 146.857Z" fill="black"/>
<path d="M8.55069 145.305C6.99217 147.818 10.2481 146.933 10.3338 144.85C10.3338 142.688 8.96494 144.637 8.55069 145.305Z" fill="black"/>
<path d="M79.5 142C77.9743 142.019 76.8807 141.989 76 142C71.3639 142.058 72.6278 139.671 72.8574 135.725C72.9917 133.417 72.6786 130.865 72.003 128.66C70.6688 124.305 68.0649 119.815 65.1943 116.26C64.6568 115.594 61.2992 110.765 60.3086 112.403C59.6299 113.524 59.5128 115.864 60.3162 116.927C63.2983 120.868 65.9286 125.151 66.818 130.019C67.367 133.027 67.1111 135.829 66.2475 138.775C65.7368 140.518 63.7156 142.284 65.6896 143.806C67.4847 145.19 67.132 145.97 69.5 146C71.5663 146.026 73.5566 146 75.6386 146C77.6385 146.035 73.8764 146 75.6386 146C77.1043 146.025 78.5324 146.017 80 146H150L150 142H79.5Z" fill="black"/>
</svg>
