<svg width="150" height="150" viewBox="0 0 150 150" fill="none" xmlns="http://www.w3.org/2000/svg">
<path d="M28.635 111.484C26.3594 110.382 24.2919 109.053 22.1805 107.668C14.5282 102.646 7.97078 94.176 7.96701 85.1557C7.96685 84.6472 7.96701 81.7495 7.96679 79.3164V0H4L4.10702 78.8298C4 82.2361 3.97498 87.1943 4.10747 90.1294C4.85384 106.66 25.1747 115.07 28.1686 115.918C30.7397 116.646 30.3256 112.303 28.635 111.484Z" fill="black"/>
<path d="M43.3607 123.243C49.3737 123.997 58.4918 126.952 60.9167 128.741C62.0118 129.549 65.6157 132.861 63.9889 134.501C62.6229 135.877 62.8721 137.744 65.2352 137.403C67.3615 137.095 67.4139 135.147 69.934 135.116C70.8032 135.106 74.0754 134.942 73.2687 133.108C72.7483 131.925 68.0756 131.941 66.7117 130.718C65.0914 129.265 63.6793 127.595 62.0763 126.125C56.0981 120.642 44.7193 119.699 37.1474 119.7C34.9571 119.7 31.1026 119.045 29.6605 121.337C27.946 124.063 39.3595 122.741 43.3607 123.243Z" fill="black"/>
<path d="M52.4463 88.4537C58.357 88.4841 60.5393 94.076 60.5432 98.8861C60.5453 101.499 64.477 103.748 65.4826 100.446C66.2641 97.8794 66.19 94.3018 65.419 91.7552C63.7599 86.2745 58.1481 83.3916 52.8394 83.3916C52.8394 83.3916 45.8856 83.5401 47.8061 86.1431C49.8844 88.96 49.4267 88.4383 52.4463 88.4537Z" fill="black"/>
<path d="M32.9674 117.592C35.8259 119.493 36.4832 116.875 36.4807 114.381C36.4747 108.254 37.4254 102.357 40.5023 96.9402C41.5256 95.1384 44.2911 91.8731 40.0387 91.2966C38.3362 91.0658 36.7861 93.9966 36.1801 95.306C33.6639 100.742 32.235 104.742 32.235 110.792C32.2871 110.792 31.8253 116.832 32.9674 117.592Z" fill="black"/>
<path d="M17.833 85.5003C20.5085 87.317 21.9082 90.5122 23.261 93.2983C26.8368 100.663 25.609 108.273 27.5392 107.107C28.9365 106.262 28.636 104.701 28.6354 103.308C28.6352 103.153 28.6352 103.21 28.6354 103.305C28.6294 95.9545 24.9046 88.061 19.6037 83.4053C17.955 81.9575 17.6384 81.154 17.6253 79.0332C17.6222 78.5567 17.3723 75.0385 15.9834 76.8361C15.0594 78.0322 15.5648 79.9605 14.3517 81.1901C13.5236 82.0294 12.3111 81.9961 11.8757 83.2775C10.3415 87.7952 15.9813 84.2432 17.833 85.5003Z" fill="black"/>
<path d="M52.1947 108.76C50.2018 110.829 44.0431 112.862 41.179 112.556C36.9883 112.223 37.6668 117.494 43.4215 117.211C50.1638 116.88 59.1817 110.928 57.9687 109.365C56.3122 107.23 54.2682 106.608 52.1947 108.76Z" fill="black"/>
<path d="M10.8155 142.579C6.71926 142.77 4.26125 143.896 4.25903 138.382C4.25634 131.402 -0.204129 136.16 0.00728464 140.363C0.16006 143.401 3.21985 147.217 6.647 146.99C8.68982 146.855 11.0466 147.228 12.4948 145.279C13.6247 143.759 12.4404 142.504 10.8155 142.579Z" fill="black"/>
<path d="M25.188 120.39C25.5751 128.803 16.568 134.215 17.3189 137.951C18.1844 142.256 23.6808 133.437 24.3662 132.53C25.955 130.426 28.3057 123.044 27.8932 120.397C27.8931 117.688 25.0778 117.994 25.188 120.39Z" fill="black"/>
<path d="M27.8936 120.397C28.0072 121.125 27.8936 119.995 27.8936 120.397Z" fill="black"/>
<path d="M13.7352 127.991C17.6665 125.416 22.4384 125.509 22.9915 123.332C23.8011 120.145 16.9039 123.054 16.1313 123.435C14.397 124.291 7.9798 126.293 7.85761 128.71C7.85729 128.569 7.85571 128.485 7.85254 128.764C7.8546 129.045 7.8562 129.04 7.85699 128.947C8.01499 132.852 12.345 128.902 13.7352 127.991Z" fill="black"/>
<path d="M44.3803 91.9182C45.7099 91.9182 46.7878 90.8357 46.7878 89.5006C46.7878 88.1654 45.7098 87.083 44.3803 87.083C43.0506 87.083 41.9727 88.1654 41.9727 89.5006C41.9727 90.8357 43.0506 91.9182 44.3803 91.9182Z" fill="black"/>
<path d="M62.1095 105.203C62.272 103.878 61.3339 102.671 60.0141 102.508C58.6944 102.345 57.4928 103.287 57.3303 104.612C57.1679 105.937 58.106 107.144 59.4257 107.307C60.7454 107.47 61.947 106.528 62.1095 105.203Z" fill="black"/>
<path d="M5.5499 133.205C6.3908 133.205 7.07257 132.521 7.07257 131.677C7.07257 130.832 6.3908 130.147 5.5499 130.147C4.709 130.147 4.02734 130.832 4.02734 131.677C4.02719 132.521 4.709 133.205 5.5499 133.205Z" fill="black"/>
<path d="M15.2483 139.886C14.4074 139.886 13.7256 140.57 13.7256 141.415C13.7256 142.259 14.4072 142.944 15.2483 142.944C16.0892 142.944 16.7708 142.259 16.7708 141.415C16.7709 140.57 16.0892 139.886 15.2483 139.886Z" fill="black"/>
<path d="M150 142L73 141C72.8523 140.963 72.156 141.012 72 141C65.3899 140.507 61.0067 142.66 48.2109 134.28C45.1181 132.254 41.5726 129.182 39.9436 125.694C39.083 123.851 36.3806 123.269 35.1802 125.182C34.3368 126.526 36.6854 129.61 37.4443 130.54C49.2251 144.983 61.5116 145.935 68.5762 145.935C69.7484 145.935 71 146 72 146H150V142Z" fill="black"/>
</svg>
