<svg width="150" height="150" viewBox="0 0 150 150" fill="none" xmlns="http://www.w3.org/2000/svg">
<path d="M59.9581 142.792C59.9086 142.534 59.8145 142.267 59.685 142H46.257C46.1563 142.086 46.0705 142.162 46 142.229C46.0204 142.241 46.0403 142.254 46.0595 142.266C46.8201 142.746 47.9695 143.472 48.5586 144.821C48.7466 145.252 48.8634 145.644 48.9267 146H56.3975C56.7596 145.568 57.3618 145.143 58.3512 144.825C60.018 144.29 60.0855 143.458 59.9581 142.792Z" fill="black"/>
<path d="M67.2959 142C67.2664 142.504 67.1868 143.04 67.0449 143.616C66.8404 144.445 66.4799 145.251 66 146H150V142H67.2959Z" fill="black"/>
<path d="M58.3444 131.34C58.1593 126.47 46.9029 134.105 45.7292 134.888C43.8384 136.148 45.1804 130.324 45.3379 129.882C46.2553 127.31 44.0986 123.979 45.4687 121.716C45.7818 121.198 48.0866 116.233 45.2892 117.24C43.517 117.877 43.189 121.799 42.044 122.008C41.096 122.181 39.2178 110.26 39.2156 109.257C39.2097 106.817 38.1825 102.856 40.4212 101.013C41.3976 100.209 45.188 98.7615 41.6093 97.7945C38.6085 96.9838 43.9428 93.6437 45.7824 94.0086C48.2914 94.5063 45.6076 97.5427 46.7906 98.8955C49.3459 101.817 54.5723 92.3641 46.0791 91.5619C46.0665 91.5595 46.0232 91.5548 45.9314 91.5474C45.8731 91.5474 45.8462 91.5484 45.8366 91.5497C34.7255 91.6508 34.5773 109.336 37.6805 116.562C38.1971 117.765 40.5676 123.963 39.6109 124.653C38.887 125.175 35.5496 123.768 34.2837 123.99C25.9308 125.461 37.4013 129.041 39.0938 130.995C46.273 139.28 26.0427 152.594 20.8099 137.856C20.6297 137.348 20.6966 132.354 18.6513 134.078C16.591 135.815 17.8783 139.693 18.6967 141.698C20.8145 146.886 28.0056 149.956 33.321 148.12C36.2194 147.119 40.7237 145.072 43.16 148.115C44.8082 150.174 47.8435 149.811 46.5557 146.545C45.4743 143.802 41.3856 144.307 45.0151 141.146C47.3964 139.071 49.8107 138.721 52.6114 137.646C58.2923 135.466 65.6278 145.088 58.6778 147.56C55.6716 148.629 58.3965 150.64 60.535 149.8C62.8336 148.897 64.699 146.538 65.2204 144.175C66.9059 136.536 58.5495 136.73 58.3444 131.34Z" fill="black"/>
<path d="M6.07456 103.21C6.2259 103.436 6.44113 103.759 6.62601 104C7.12813 103.583 7.58783 103.098 8 102.565V90.3241C7.73183 90.1232 7.45118 90 7.16277 90C6.11406 90 4.84637 91.373 4.00734 92.2814C4.00485 92.2842 4.00249 92.2867 4 92.2894V101.066C4.03423 101.081 4.06763 101.095 4.10228 101.111C4.93479 101.502 5.51438 102.37 6.07456 103.21Z" fill="black"/>
<path d="M4.01004 84C5.3221 83.2961 6.69126 82.8812 7.82692 82.8812C7.8854 82.8812 7.94249 82.8841 8 82.8862L7.99986 0H4.01004V80.5564C3.99276 80.3125 4.00119 80.5388 4.01004 80.6877V84Z" fill="black"/>
<path d="M15.2049 129.435C14.3162 127.535 12.2248 128.257 10.6544 127.93C4.65816 126.679 3.15565 118.137 6.48006 113.751C9.22581 110.127 16.753 106.46 19.8655 111.826C22.1568 115.776 24.8973 122.449 26.0795 114.259C26.2412 113.138 24.5493 109.153 27.1282 110.004C29.3989 110.753 31.5091 111.698 33.85 112.329C35.9638 112.9 34.7371 109.545 32.5807 109.416C30.3661 109.283 29.9571 107.265 31.6281 105.943C34.9805 103.291 29.7947 104.432 28.6094 104.724C26.3108 105.289 24.3533 104.282 22.1532 104.221C18.9713 104.133 11.8929 107.408 16.7853 102.114C18.2194 100.562 22.3435 93.3924 19.1899 91.7596C17.5544 90.9129 16.0244 92.7818 15.49 89.8504C14.9154 86.6979 11.4934 84.8732 8.75946 84.2328C5.4554 83.459 -2.91574 88.5052 1.03984 92.073C1.91258 92.8601 7.0115 83.2534 11.6475 91.9706C14.0305 96.4517 11.5714 103.093 7.09477 105.962C5.66108 106.881 4.4051 103.372 3.14571 102.841C-0.166889 101.447 0.856686 104.92 2.21954 106.124C5.58853 109.099 -0.770256 120.099 2.67532 125.684C4.19632 128.149 7.02828 130.205 9.52904 130.84C10.1208 130.991 16.4036 131.997 15.2049 129.435Z" fill="black"/>
<path d="M53.9114 109.907C52.2129 109.574 51.9168 105.725 49.9601 109.246C47.7865 113.157 44.5955 110.306 41.6515 112C38.749 113.67 51.5903 115.898 56.0944 111.369C58.4485 109.002 60.7555 106.096 58.9683 102.556C57.6186 99.8818 54.1547 98.3194 51.9517 101.066C50.0045 103.493 52.8699 105.137 55.0576 104.117C58.1934 102.655 56.9985 110.511 53.9114 109.907Z" fill="black"/>
<path d="M25.5016 128.658C22.2352 130.685 29.6191 131.501 27.8284 133.68C26.078 135.811 26.1084 138.841 29.4564 139.067C29.2136 139.072 29.1305 139.079 29.8414 139.082C29.9972 139.075 30.0475 139.071 30.0357 139.068C37.5177 138.517 31.5092 124.931 25.5016 128.658Z" fill="black"/>
<path d="M20.7128 123.876C24.445 117.876 10.8402 111.876 10.2887 119.348C10.2859 119.336 10.2814 119.386 10.2749 119.542C10.2775 120.252 10.2848 120.169 10.2895 119.927C10.5157 123.27 13.5499 123.3 15.6836 121.552C17.8662 119.764 18.6833 127.138 20.7128 123.876Z" fill="black"/>
<path d="M18.9936 130.192C20.4539 131.694 21.4647 133.778 23.1305 134.856C25.403 136.326 24.5194 131.772 21.2306 128.49C19.6594 126.921 16.7835 125.136 15.3254 125.092C11.7014 124.981 17.7856 128.951 18.9936 130.192Z" fill="black"/>
<path d="M57.0905 121.996C57.0933 122 57.0983 121.969 57.1065 121.875C57.1092 121.553 57.1033 121.545 57.0975 121.634C56.9341 119.607 54.3698 122.041 53.4895 121.004C53.0661 120.505 54.546 115.617 51.7059 118.157C44.5925 124.519 56.4934 126.194 57.0905 121.996Z" fill="black"/>
<path d="M65.876 124.497C65.9763 126.437 65.876 124.367 65.876 124.497Z" fill="black"/>
<path d="M62.2137 118.904C59.8161 118.258 62.9073 122.727 62.9252 123.13C63.0004 124.825 60.0942 125.586 60.7423 127.197C62.1505 130.698 65.9952 126.805 65.8757 124.497C65.8757 122.42 64.3682 119.484 62.2137 118.904Z" fill="black"/>
<path d="M28.7699 93.3801C26.9332 93.9687 24.9102 97.627 26.3591 99.2952C27.8257 100.984 32.8199 100.081 33.2703 97.6877C33.6858 95.4798 31.1781 96.9981 30.4894 97.0006C28.3101 97.0758 31.2884 92.5731 28.7699 93.3801Z" fill="black"/>
<path d="M5.21664 135.7C4.52162 137.154 6.12899 139.868 7.6245 138.174C9.20266 136.385 10.8694 135.538 12.4917 133.987C13.5927 132.933 6.32301 133.387 5.21664 135.7Z" fill="black"/>
<path d="M15.0623 136.554C13.5086 138.174 12.6611 139.838 10.8698 141.414C9.17261 142.908 11.8907 144.513 13.346 143.819C15.6627 142.714 16.1171 135.454 15.0623 136.554Z" fill="black"/>
<path d="M49.8471 125.313C48.5572 124.339 47.5055 127.871 47.4079 128.386C47.2892 130.205 51.2401 126.364 49.8471 125.313Z" fill="black"/>
<path d="M21.3702 102.383C21.8858 102.286 25.4217 101.236 24.4469 99.9473C23.394 98.5564 19.5479 102.502 21.3702 102.383Z" fill="black"/>
<path d="M23.0809 89.5867C24.694 90.2337 25.4561 87.3316 27.1534 87.4066C27.557 87.4244 32.0324 90.5117 31.386 88.1174C30.805 85.9657 27.8646 84.4602 25.7848 84.4602C23.4737 84.3409 19.5755 88.1804 23.0809 89.5867Z" fill="black"/>
<path d="M25.7848 84.46C25.9149 84.46 23.8424 84.3599 25.7848 84.46Z" fill="black"/>
</svg>
