<svg width="150" height="150" viewBox="0 0 150 150" fill="none" xmlns="http://www.w3.org/2000/svg">
<path d="M10.4976 131.441C11.4008 131.328 12.2826 130.43 12.6369 129.639C13.1246 128.549 12.6282 127.583 12.1432 126.608C11.5648 125.445 11.6202 124.444 11.5421 123.191C11.5421 123.086 11.5432 123.04 11.5449 123.031C11.6051 118.597 14.1632 114.224 19.0886 114.096C21.451 114.035 23.363 114.555 23.3455 117.267C23.3411 117.958 23.3303 119.714 24.5455 119.459C25.6412 119.23 26.2035 117.687 26.3623 116.749C26.7692 114.344 25.3666 111.904 23.5299 110.45C22.7043 109.797 21.7121 109.346 21.4419 108.231C21.2612 107.484 21.7729 106.425 21.2585 105.794C20.6527 105.05 16.0555 106.894 15.1732 107.587C13.3047 109.052 11.999 110.88 10.901 112.971C10.416 113.895 10.0382 115.942 9.18242 116.54C8.24055 117.199 7.80241 115.639 7.75969 115.027C7.59707 112.697 9.51606 110.003 10.3757 107.89C11.1759 105.922 12.9386 103.815 14.9874 103.108C16.2762 102.663 19.4733 101.923 17.387 100.162C16.7174 99.5964 14.8717 98.6223 16.1785 97.6677C16.9883 97.0763 18.6432 97.2005 19.5643 97.4358C20.3705 97.6416 21.1906 97.9916 21.6821 98.6978C22.4421 99.7903 21.8853 100.728 21.8428 101.892C21.7432 104.616 25.9774 102.793 26.1184 100.187C26.4559 93.9537 18.5314 93.6954 17.4798 94.1419C17.0304 94.3328 15.1943 94.7848 15.6164 93.5756C15.8983 92.768 17.0923 92.4057 17.8382 92.421C26.6639 92.6012 34.761 99.9938 39.7878 94.3904C40.4613 93.6398 39.2773 92.4837 40.0813 91.8693C43.6156 89.1685 44.6906 85.8449 44.8607 83.2232C44.9815 81.3614 43.7052 78.8313 41.5717 78.909C40.2398 78.9574 40.3244 80.1189 40.8256 80.9855C41.3887 81.959 41.4775 82.7878 41.0406 83.8378C40.6041 84.8873 37.4982 88.5924 36.7146 85.9491C36.3805 84.8219 37.1864 84.0109 36.2054 82.9542C35.4312 82.1205 34.365 82.2162 33.9764 83.3712C33.2637 85.49 31.0137 86.3156 28.9629 86.2838C20.9076 86.1587 16.809 90.8304 15.2956 89.811C14.0199 88.9519 15.029 87.6767 15.1592 86.5465C15.2578 85.6902 15.4079 83.7033 14.6381 83.0957C13.533 82.2231 12.2997 87.3205 7.45764 94.2053C-2.56672 108.459 6.38508 127.231 7.88022 129.303C8.48241 130.137 9.25785 131.595 10.4976 131.441Z" fill="black"/>
<path d="M11.5453 123.031C11.5445 123.085 11.5425 123.138 11.5425 123.192C11.5685 123.609 11.5523 122.991 11.5453 123.031Z" fill="black"/>
<path d="M19.9118 145.578C18.3722 144.483 17.5952 142.846 17.6986 140.959C17.511 138.889 19.511 136.04 21.4338 135.243C23.5675 134.359 25.4531 133.28 27.2854 135.281C27.9762 136.035 28.9387 137.434 29.8244 135.98C30.434 134.98 29.6802 133.906 29.007 133.177C27.6558 131.711 25.6928 131.029 25.2099 128.906C24.9448 127.741 25.0819 126.893 24.0425 126.068C23.1719 125.376 22.289 125.46 21.2639 125.291C20.1481 125.107 19.7808 124.211 19.0883 123.458C18.3716 122.678 17.4888 122.081 16.6012 121.516C15.8194 121.017 13.9109 121.486 14.2209 122.695C14.435 123.529 15.6036 123.87 16.0857 124.541C17.485 126.487 16.0321 129.124 14.9193 130.824C13.7183 132.659 10.5457 133.446 8.49205 133.288C6.36852 133.124 5.51145 131.95 4.51829 130.263C3.79509 129.035 3.00742 130.854 2.96121 131.469C2.87863 132.567 2.84417 133.716 3.47383 134.66C4.05744 135.534 4.88862 136.196 5.75664 136.771C6.38408 137.187 7.97451 137.828 7.44839 138.846C6.87415 139.957 5.78237 140.665 5.23306 141.824C4.79254 142.754 4.30009 143.975 4.19035 145.004C4.10698 145.785 4.43619 146.675 5.34677 146.695C6.18811 146.714 7.59686 146.402 8.41645 146.179C10.1444 145.709 12.3821 142.146 13.9587 144.275C14.5374 145.056 14.8029 146.005 15.4872 146.72C16.2536 147.52 17.3495 147.9 18.3802 148.227C19.3514 148.536 21.0603 148.655 21.4603 147.337C21.7346 146.433 20.4543 145.964 19.9118 145.578Z" fill="black"/>
<path d="M38.8474 114.742C39.5334 114.697 38.0527 114.819 38.8474 114.742Z" fill="black"/>
<path d="M41.2835 100.754C39.6177 100.888 37.9934 105.642 36.639 103.045C35.7994 101.434 35.218 99.4168 33.013 99.3564C29.5925 99.2628 33.1327 102.56 33.4991 103.718C35.0609 108.655 29.6432 117.283 29.3302 118.517C28.8552 120.391 31.246 122.859 33.1438 122.599C34.3847 122.43 42.0316 116.946 46.5036 116.178C47.5244 116.002 48.9144 116.943 49.4764 117.66C49.8966 118.197 50.4073 119.721 51.3507 119.409C53.8362 118.587 51.3798 115.258 50.2571 114.449C48.9122 113.48 48.2155 113.001 46.7359 113.92C45.7777 114.515 44.7242 115.053 43.6141 115.294C41.5983 115.732 39.4531 114.96 37.9793 116.845C37.3439 117.657 37.0793 118.855 35.9328 119.113C35.0816 119.305 34.0108 118.997 33.818 118.007C33.6107 116.942 34.7028 115.897 35.5078 115.402C36.6577 114.697 37.5784 114.865 38.8478 114.742C41.529 114.567 44.8522 114.217 46.2395 111.475C46.8653 110.238 47.5877 108.448 47.2431 107.061C46.8772 105.587 46.9832 104.809 48.1184 103.7C48.7254 103.108 50.2475 102.163 49.8216 101.107C49.4265 100.127 48.12 99.7676 47.1856 99.9767C46.0848 100.223 44.9995 100.854 44.0088 101.374C42.852 101.982 42.3539 100.668 41.2835 100.754Z" fill="black"/>
<path d="M5.55927 67.9001C6.23422 67.9428 7.42727 68.0186 7.94471 67.9958C7.96238 67.9603 7.98122 67.9139 8.00023 67.8618V1.86912C8.00023 0.836865 8.00023 1 8.00023 0H4C4.00023 1 4.00023 0.836865 4.00023 1.86912V67.8186C4.40005 67.8279 4.90301 67.8584 5.55927 67.9001Z" fill="black"/>
<path d="M4.45534 84.371C4.29717 84.249 4.14657 84.1251 4 84V95C4.44087 94.2864 4.91439 93.5887 5.42964 92.9121C6.42682 91.6022 7.27172 90.3652 8 89.223V84.8168C7.86555 84.907 7.71629 84.9885 7.54684 85.0564C6.58567 85.442 5.54541 85.2115 4.45534 84.371Z" fill="black"/>
<path d="M3.85045 75.7273C5.14518 77.2238 3.62304 78.1469 3.984 79.7471C4.29097 81.1086 5.169 82.1903 6.21965 83.067C7.9125 84.4796 7.60442 82.3032 7.76196 81.344C7.76196 80.1299 8.24345 78.7113 9.56296 78.3451C10.5193 78.0798 12.5806 78.6788 13.4181 79.1747C14.0611 79.5555 15.6547 81.8749 16.3269 81.5528C16.9007 81.2781 15.9386 78.594 16.0757 77.9129C16.368 76.4592 16.6796 74.9582 16.1233 73.4949C15.5732 72.0479 12.8461 68.6486 13.037 65.8752C13.1643 64.0226 10.9407 66.2365 10.6795 66.7207C10.1156 67.7667 10.316 69.1748 8.97776 69.6884C8.32079 69.9404 5.07451 69.5355 4.19457 69.5942C2.99735 69.6741 1.24971 68.1479 0.353259 69.0618C-0.601473 70.0351 0.625607 71.7921 1.13823 72.6985C1.816 73.8961 2.96384 74.7023 3.85045 75.7273Z" fill="black"/>
<path d="M83.339 143.783C83.1918 142.547 81.9781 140.806 83.77 140.156C85.1615 139.651 86.2609 139.857 87.285 138.533C88.4295 137.054 85.2869 137.228 84.724 137.106C83.2634 136.789 82.1513 135.596 80.8488 134.921C77.7617 133.323 74.3985 134.871 71.2848 133.649C70.0897 133.181 70.4705 134.658 71.0735 135.074C71.6366 135.462 72.2924 135.675 72.8138 136.129C73.657 136.863 74.7703 138.666 74.5646 139.828C74.3108 141.262 72.8851 142.102 71.5662 142.298C70.2248 142.498 69.4346 143.131 70.339 144.496C71.0371 145.55 72.1905 146.455 73.5163 146.287C74.5934 146.15 76.28 144.633 77.2568 145.549C78.1814 146.417 78.3532 147.744 79.3649 148.619C80.2492 149.383 81.4686 150.075 82.6781 149.994C84.0508 149.993 84.2711 149.266 83.6614 148.16C82.9263 146.827 83.5121 145.235 83.339 143.783Z" fill="black"/>
<path d="M27.338 122.591C26.0505 123.138 25.7547 125.099 27.5266 125.116C29.7048 125.137 28.8553 121.946 27.338 122.591Z" fill="black"/>
<path d="M68.5306 136.322C67.923 135.553 65.9359 135.703 65.0798 135.801C63.9496 135.931 62.6746 136.941 61.8153 135.665C60.7957 134.151 65.4676 130.053 65.3425 121.998C65.3105 119.947 66.1363 117.697 68.2551 116.984C69.4101 116.596 69.5058 115.529 68.6721 114.755C67.6154 113.774 66.8043 114.58 65.6772 114.246C63.0338 113.462 66.7388 110.356 67.7884 109.92C68.8385 109.483 69.6672 109.572 70.6407 110.135C71.5073 110.636 72.6687 110.72 72.7172 109.389C72.7948 107.255 70.2646 105.979 68.4029 106.1C65.7812 106.27 62.4576 107.345 59.7568 110.879C59.1426 111.683 57.9863 110.499 57.2357 111.173C51.6323 116.199 59.0249 124.297 59.2052 133.122C59.2202 133.868 58.858 135.062 58.0505 135.344C56.8414 135.766 57.2935 133.93 57.4842 133.481C57.9308 132.429 57.6725 124.505 51.4393 124.842C48.8327 124.983 47.0103 129.217 49.7342 129.118C50.8978 129.075 51.8358 128.519 52.9283 129.279C53.6345 129.77 53.9843 130.59 54.1903 131.396C54.4256 132.318 54.5497 133.972 53.9583 134.782C53.0039 136.089 52.0297 134.243 51.4644 133.574C49.7033 131.487 48.9626 134.685 48.5181 135.973C47.8117 138.022 45.7047 139.785 43.7363 140.585C41.6228 141.445 38.9285 143.363 36.5986 143.201C35.9872 143.158 34.4274 142.72 35.086 141.778C35.6843 140.922 37.7315 140.545 38.6549 140.06C40.7459 138.961 42.5736 137.656 44.0393 135.787C44.7316 134.905 46.5764 130.308 45.8326 129.702C45.2008 129.188 44.1418 129.699 43.3954 129.519C42.28 129.248 41.8293 128.256 41.1756 127.431C39.7216 125.594 37.2816 124.191 34.8771 124.598C33.9391 124.757 32.3963 125.319 32.1665 126.415C31.9118 127.63 33.6678 127.619 34.359 127.615C37.071 127.597 37.5908 129.51 37.5296 131.872C37.4023 136.797 33.0288 139.355 28.5952 139.416C28.5856 139.417 28.54 139.418 28.4346 139.418C27.1818 139.34 26.1812 139.396 25.0179 138.817C24.0429 138.332 23.077 137.836 21.9875 138.324C21.196 138.678 20.2978 139.56 20.1852 140.463C20.0307 141.703 21.4887 142.478 22.3232 143.081C24.3948 144.576 43.167 153.528 57.4208 143.503C64.3059 138.661 69.4033 137.428 68.5306 136.322Z" fill="black"/>
<path d="M28.4346 139.419C28.4881 139.419 28.5416 139.416 28.5952 139.416C28.635 139.409 28.017 139.393 28.4346 139.419Z" fill="black"/>
<path d="M148.149 142H85C85.1175 142.411 85.2459 142.87 85.2994 143.351C85.3302 143.628 85.3453 143.919 85.3453 144.237C85.3453 144.655 85.3198 145.05 85.295 145.432C85.2822 145.63 85.2715 145.818 85.2637 146H148.149C149.171 146 149 146 150 146V142C149 142 149 142 148.149 142Z" fill="black"/>
<path d="M67.9284 143.242C67.9284 142.994 67.964 142.514 68.1885 142H62.6551C61.4237 142.787 60.0711 143.716 58.6279 144.837C58.0911 145.255 57.5478 145.639 57 146H69C68.8558 145.806 68.717 145.601 68.5863 145.383C68.1496 144.655 67.9284 143.935 67.9284 143.242Z" fill="black"/>
</svg>
