<svg width="150" height="150" viewBox="0 0 150 150" fill="none" xmlns="http://www.w3.org/2000/svg">
<path d="M29.4209 107.67C31.3381 105.401 25.3362 105.908 25.3129 103.537C25.2797 100.114 25.7804 96.2911 29.3675 94.736C30.9043 94.0698 38.4387 93.6197 34.2275 90.3031C32.6488 89.0599 31.5513 86.65 29.1784 86.7249C28.112 86.7586 26.3797 88.7019 25.322 87.5214C23.5174 85.5075 29.751 81.6006 30.9175 81.0034C35.527 78.6437 45.0384 76.7814 46.7001 84.1713C47.0773 85.8479 40.6201 85.6472 41.0957 89.6251C41.4612 92.6829 45.718 94.7597 48.3159 93.1702C53.2632 90.1433 53.5517 84.8634 50.9522 80.2524C47.1918 73.5829 33.507 69.3023 25.0775 80.5109C22.0782 84.4991 23.7543 79.1569 22.8014 77.1599C21.3737 74.1672 18.1179 81.5133 17.8232 82.098C16.3702 84.9807 16.2814 88.1352 16.2864 91.2854C16.2967 97.4695 18.5461 102.065 20.2588 107.902C20.4874 108.681 23.9014 116.384 20.8424 113.445C18.1749 110.883 15.1476 109.088 11.5618 108.367C6.59692 107.369 -2.24552 111.307 0.526172 118.028C1.95685 121.496 5.68871 121.799 5.47659 117.602C5.20221 112.177 9.16076 111.966 8.67569 113.996C8.32384 115.467 9.32061 120.577 11.4933 117.752C13.8038 114.748 16.0819 115.076 19.0936 117.142C22.1207 119.219 24.4486 123.955 24.3428 127.615C24.2789 129.819 19.527 138.081 14.8234 138.962C10.5371 139.766 12.0988 134.046 13.0369 132.281C14.848 128.876 17.8402 128.108 20.6238 125.749C23.9754 122.909 17.1929 123.526 16.2154 123.857C10.1238 125.921 5.29853 130.841 5.29853 137.395C5.29853 145.034 11.8947 147.964 19.4416 143.56C24.3475 140.697 28.1743 134.302 26.7397 121.833C26.1701 116.884 25.9683 111.758 29.4209 107.67Z" fill="black"/>
<path d="M36.1307 126.219C38.981 127.345 41.7799 128.54 44.6461 129.637C58.1517 134.802 67.2275 128.757 69.2989 127.012C72.0383 124.704 68.9004 123.354 66.6594 124.214C63.569 125.4 62.7 124.03 65.4251 122.052C68.3909 119.9 69.592 118.019 71.1846 114.738C73.8101 109.33 73.6491 101.905 69.3145 97.2985C65.7195 93.4778 59.7132 91.2193 55.2396 95.3772C50.8983 99.412 55.2265 108.744 59.6779 104.296C61.157 102.819 59.8994 97.7648 63.7166 100.312C66.6391 102.263 67.5229 105.589 67.5229 108.864C67.5229 112.676 65.8451 115.297 63.7955 118.419C62.5266 120.352 58.1637 123.689 59.9718 118.95C61.0743 116.06 57.647 113.36 55.5276 111.91C52.8073 110.048 52.7531 117.524 52.1278 118.616C50.4278 121.585 47.8347 121.69 44.9241 122.597C41.2025 123.756 43.6591 119.899 41.9232 118.492C40.2514 117.137 37.5972 120.551 36.049 121.227C33.7476 122.232 30.5533 120.528 28.8783 122.908C25.0586 128.337 38.3117 130.969 32.2699 137.405C30.3545 139.446 31.2903 141.99 34.3677 141.494C38.5523 140.819 36.2179 143.591 33.5872 144.078C25.2578 145.617 32.6043 153.65 38.7486 148.03C43.1412 144.012 41.0327 136.473 38.268 132.293C37.8497 131.66 32.243 124.684 36.1307 126.219Z" fill="black"/>
<path d="M49.473 69.9469C51.0349 69.9111 57.1294 73.0125 56.5342 80.7212C56.3973 82.495 54.2582 90.1904 55.8102 90.7507C57.1367 91.2295 59.6031 89.8593 60.8308 89.4348C62.9446 88.7041 65.7917 88.7166 67.9909 89.0989C71.0111 89.624 76.2693 92.9701 75.4194 96.6254C75.0489 98.2195 73.4084 100.554 76.6102 100.688C78.0102 100.746 79.3624 99.7231 80.0528 98.5901C81.5916 96.0659 81.0515 92.9296 79.6154 90.5941C77.3925 86.9791 73.5122 85.1833 69.3986 85.1037C65.274 85.0238 69.6286 83.1242 70.4769 82.7838C72.4022 82.0112 78.2915 79.6146 75.3861 76.6666C72.7947 74.0373 79.6438 70.3148 75.8527 67.5557C72.8305 65.3562 70.5725 72.0551 67.2737 69.6357C64.2387 67.4096 62.5193 74.3882 62.0616 75.9257C60.8012 80.1593 59.3841 72.057 58.5868 70.6157C56.7531 67.3 54.3444 64.6708 50.431 64.6708C50.431 64.4866 43.0214 64.6472 45.2211 70.4013C45.5439 71.2459 47.6254 69.9894 49.473 69.9469Z" fill="black"/>
<path d="M50.4307 64.6714C50.8956 64.6714 50.4307 64.6727 50.4307 64.6714Z" fill="black"/>
<path d="M44.2927 108.34C46.6278 106.687 47.5983 111.16 49.8765 110.761C52.5772 110.288 53.9381 107.789 51.6373 105.89C48.7906 103.54 50.1458 101.242 50.1563 98.2016C50.1558 98.3365 50.1547 98.9309 50.1564 98.1912C50.1564 98.19 50.1564 98.1896 50.1564 98.1884C50.1539 94.9641 46.0724 96.6704 44.0505 96.768C42.0202 96.8658 39.1627 93.2751 37.5463 94.5461C35.2917 96.3189 36.7039 99.2282 38.4891 100.751C40.1932 102.204 39.3151 105.895 38.6356 107.781C37.1308 111.959 43.4089 108.966 44.2927 108.34Z" fill="black"/>
<path d="M33.9778 112.141C33 113.095 30.3516 114.101 30.4396 115.865C30.6765 120.609 37.0165 115.094 36.9657 111.899C36.6474 108.104 35.449 110.704 33.9778 112.141Z" fill="black"/>
<path d="M7.41064 104.315C7.60984 104.315 7.80586 104.326 8 104.341L7.99941 0H4L4.00059 105C5.17212 104.538 6.34837 104.315 7.41064 104.315Z" fill="black"/>
<path d="M45 142C45.2943 143.324 45.3516 144.684 45.0681 146H150V142H45Z" fill="black"/>
</svg>
