<svg width="150" height="150" viewBox="0 0 150 150" fill="none" xmlns="http://www.w3.org/2000/svg">
<path d="M8 84.8342V0H4V85C4.74522 84.769 5.52508 84.648 6.31968 84.648C6.88613 84.648 7.44986 84.7116 8 84.8342Z" fill="black"/>
<path d="M2.95932 94.5018C5.82305 90.554 10.6222 94.3871 12.9332 96.7819C15.3341 99.27 16.7241 102.967 17.8591 106.194C18.5932 108.282 19.9411 109.946 21.027 111.83C21.4282 112.526 23.9517 114.099 23.4477 112.121C23.0273 110.472 19.6776 87.0108 32.063 84.271C34.3387 83.7678 42.3848 83.8347 41.5288 88.1377C41.3199 89.1868 39.1595 90.9134 40.8695 91.7316C42.288 92.4103 44.7582 90.6095 45.4819 89.4671C47.4082 86.427 45.1223 81.277 42.3895 79.5674C40.5123 78.393 38.9533 78.0263 36.8053 77.8694C34.6739 77.7136 35.9048 75.4501 35.039 74.2898C32.8882 71.4066 27.5902 76.4861 24.0001 80.7478C22.5878 82.4243 22.483 79.3334 22.0315 78.4934C20.6687 75.9588 18.9416 78.8941 18.0877 80.2073C17.1651 81.6262 16.8788 88.0289 16.2647 89.5475C15.4096 91.6618 13.124 88.9951 12.2776 88.3812C9.44956 86.3307 5.36222 86.5009 2.72678 88.7705C1.47237 89.8508 0.151312 91.6185 0.0108465 93.3488C-0.159113 95.4469 1.70605 96.2296 2.95932 94.5018Z" fill="black"/>
<path d="M65.2754 142C65.5771 143.309 65.4837 144.661 65 146H68.5303H68.5664C68.5719 146 68.577 146 68.5829 146H150V142H65.2754Z" fill="black"/>
<path d="M60.0718 134.508C60.265 132.606 64.0718 135.691 68.9328 132.184C71.1188 130.607 72.1065 130.191 72.9002 129.005C74.3362 126.859 70.2063 127.041 69.5882 126.347C68.5447 125.176 71.4677 123.935 72.0485 123.581C75.4948 121.484 77.2343 118.07 74.6769 114.382C73.7113 112.989 71.8689 113.134 71.9393 110.963C71.9947 109.259 71.0985 107.741 69.9953 106.531C67.6664 103.976 63.3844 102.126 60.2129 104.387C59.2161 105.097 57.5908 107.242 58.2599 108.586C59.0033 110.079 60.2901 108.635 61.225 108.35C65.3252 107.097 67.3862 113.544 66.21 116.533C65.202 119.095 63.921 122.506 61.5333 124.227C56.9788 127.51 48.3936 129.901 39.0329 126.852C38.1197 126.555 35.2667 125.827 37.2227 127.606C38.7503 128.995 40.7361 129.925 42.5283 130.887C44.1418 131.754 45.8034 132.68 47.4853 133.4C48.8536 133.986 50.3381 135.035 51.7522 135.405C54.6363 136.159 59.3139 141.86 57.8867 144.947C57.3747 146.055 54.7421 147.459 55.2176 148.728C55.7548 150.162 57.7412 150.275 58.8428 149.604C62.1582 147.586 64.6812 143.401 63.2681 139.422C62.7321 137.914 59.9178 136.026 60.0718 134.508Z" fill="black"/>
<path d="M39.1413 143.352C38.1516 143.112 35.9152 144.518 33.7877 143.926C31.8031 143.374 25.4438 138.905 25.7691 130.385C25.7691 130.344 25.7689 130.309 25.7689 130.276C25.7689 130.311 25.7689 130.346 25.7691 130.382C25.7692 129.736 25.9179 123.208 23.8062 125.264C22.8835 126.162 23.2301 128.052 21.3332 127.831C19.3 127.595 20.0723 125.657 19.2823 124.476C18.3567 123.092 11.5342 127.427 5.56584 116.191C4.70529 114.571 6.20511 113.369 5.76595 111.82C5.13516 109.595 3.24654 111.721 2.65192 112.679C1.61245 114.353 1.88881 116.489 2.67832 118.195C3.21786 119.361 5.64406 121.908 5.05988 123.196C3.10151 127.515 8.45288 127.569 11.1452 128.827C12.9836 129.686 15.3059 127.932 16.6827 128.748C18.9521 130.092 15.1535 130.703 14.6029 130.796C12.4221 131.162 4.038 133.423 6.31852 136.966C8.25832 139.979 6.33059 140.331 5.31067 142.952C4.33165 145.468 7.48853 144.691 8.55034 144.125C10.0036 143.351 10.6296 142.382 12.1156 143.807C15.1734 146.739 18.2004 139.209 18.715 137.93C19.0334 137.138 18.8472 133.692 20.2751 133.729C21.6809 133.766 21.1119 137.97 21.1124 138.742C21.113 140.755 21.5473 142.33 22.9239 143.869C23.8234 144.874 24.7332 145.642 26.0618 144.939C26.8713 144.511 27.6424 144.608 28.4066 145.169C31.0983 147.143 35.7539 147.625 37.8097 146.97C38.952 146.607 41.5659 143.94 39.1413 143.352ZM25.7688 130.235C25.7688 130.2 25.7688 130.169 25.7688 130.144C25.7688 130.171 25.7688 130.203 25.7688 130.235Z" fill="black"/>
<path d="M51.0189 118.992C47.9435 116.049 47.2678 111.216 45.837 107.481C43.8938 102.409 37.7024 103.615 33.6019 101.445C31.6217 100.397 29.1456 98.4652 29.1502 95.9794C29.1523 94.8037 28.9222 90.2687 26.8061 92.8491C23.3712 97.0385 26.9188 102.937 30.7657 105.423C31.7941 106.088 36.4123 106.522 35.5663 108.62C35.0201 109.974 32.5241 111.501 33.2882 113.232C34.033 114.919 36.2857 117.251 38.3438 116.267C39.8492 115.547 42.9573 112.688 43.5761 115.977C44.7607 122.274 52.779 123.678 53.3691 123.678C54.7861 123.572 56.1603 123.85 57.3409 122.824C58.0256 122.229 58.6422 120.935 57.431 120.448C56.5792 120.105 53.9237 121.771 51.0189 118.992Z" fill="black"/>
<path d="M56 144C57.4798 139.933 44.6292 138.376 38.277 132.783C27.6076 123.39 31.4742 108.807 30.159 107.333C28.9447 105.972 27.457 105.206 26.5287 107.276C25.7578 108.994 23.8876 127.073 38.1236 138.236C43.2981 142.293 54.866 147.117 56 144Z" fill="black"/>
<path d="M39.2656 94.7496C34.1121 96.2591 33.8398 99.0321 35.309 99.5305C38.1007 100.477 40.6128 98.2201 43.3558 98.8853C45.0252 99.29 45.0484 101.015 45.7305 102.3C46.616 103.968 47.4091 103.838 48.9912 104.378C52.6222 105.617 50.7517 109.924 50.4959 112.61C50.4913 112.646 50.4859 112.705 50.4796 112.798C50.4819 112.83 50.4843 112.856 50.4864 112.879C50.8837 117.917 53.71 115.318 54.804 111.938C55.7671 108.962 55.9462 105.833 54.8017 102.856C52.4681 96.7847 45.7305 92.8559 39.2656 94.7496Z" fill="black"/>
<path d="M11.8245 111.978C13.9709 114.375 16.4023 116.515 18.8993 118.43C20.0712 119.329 21.3665 121.561 23.1897 120.869C24.5706 120.345 23.8532 118.576 23.4544 117.637C22.5207 115.441 19.372 113.911 17.6633 112.236C11.5186 106.21 11.1114 99.403 9.58567 96.9121C8.6334 95.3575 5.5 93.5 4.99935 96.4999C4.87313 99.2241 7.03692 106.632 11.8245 111.978Z" fill="black"/>
<path d="M6.19298 97.0397C6.18499 96.6156 6.16756 97.5995 6.19298 97.0397Z" fill="black"/>
<path d="M39.6188 119.722C38.2985 119.722 34.6657 119.63 35.6791 122.159C37.4085 126.475 45.0795 123.552 43.9818 121.501C42.9937 119.655 41.4148 119.861 39.6188 119.722Z" fill="black"/>
</svg>
