<svg width="150" height="150" viewBox="0 0 150 150" fill="none" xmlns="http://www.w3.org/2000/svg">
<path d="M41.0683 88.3554C49.2091 91.8892 42.328 105.286 44.4015 106.997C47.1606 109.275 54.6597 104.334 57.3919 105.627C66.4113 109.892 64.7012 118.854 69.1321 118.984C70.5529 119.026 74.7574 120.015 73.989 116.564C73.6728 115.144 71.8064 114.322 71.3881 112.698C70.8933 110.777 71.0295 109.42 70.0961 107.533C69.4355 106.198 67.7695 104.827 70.1026 103.815C72.7722 102.657 73.0294 102.178 70.5783 99.7658C67.1816 96.4229 58.7843 101.252 56.8913 99.5857C55.4029 98.2752 59.4155 97.5143 60.4728 97.4003C60.4284 97.4003 60.4432 97.3969 60.6264 97.3866C62.9119 97.3866 72.0865 92.4734 71.803 90.3433C71.6637 89.2965 69.9805 88.4702 69.7168 87.5459C69.4963 86.7734 70.3282 85.5725 70.659 84.9421C71.1947 83.9213 73.4524 80.4944 70.9623 80.2313C68.8375 80.0068 66.6161 82.9643 64.6983 82.3535C63.2578 81.895 63.045 79.2216 60.9535 80.574C60.0085 81.1849 54.917 87.3836 55.0901 89.397C55.1606 90.2169 54.3953 93.3958 53.814 94.013C51.6156 96.3469 52.1655 87.9069 52.591 86.3657C52.9407 85.0989 53.7808 84.2992 52.9329 82.9407C52.1728 81.7229 50.1985 77.7869 48.4705 80.4223C47.8725 81.3343 47.6668 84.6676 45.6955 82.8896C44.1298 81.4774 42.4944 81.542 40.6433 81.0288C38.3866 80.4031 38.7847 81.378 34.6994 78.1673C33.0831 76.8971 31.6851 80.1898 32.2209 81.8059C33.9581 87.0459 39.0794 87.4919 41.0683 88.3554Z" fill="black"/>
<path d="M60.6262 97.3872C60.5866 97.3894 60.5336 97.3944 60.4727 97.4009C60.5598 97.4007 60.8798 97.3872 60.6262 97.3872Z" fill="black"/>
<path d="M59.4811 116.562C55.679 112.748 49.4014 109.371 44.3035 112.309C41.9578 113.66 39.7357 117.773 43.5233 118.892C46.9822 119.914 46.3424 115.524 49.0692 115.35C51.7445 115.179 52.4838 118.876 52.4864 120.833C52.4891 122.94 49.0232 127.607 53.7821 127.075C55.6735 126.863 58.1381 121.355 59.5344 123.985C60.6862 126.154 61.1017 128.89 62.2176 131.171C63.301 133.386 66.341 136.946 69.1083 137.002C70.2085 137.025 72.1717 137.284 72.2231 135.6C72.257 134.488 72.532 133.119 74.0776 133.433C82.3808 135.118 85.1371 128.395 84.9006 125.508C84.7853 124.102 84.3566 123.271 83.184 122.472C81.578 121.376 81.3698 124.524 81.0303 125.072C79.7828 127.088 77.2265 128.082 74.9882 128.091C74.9863 128.091 74.9843 128.091 74.9814 128.091C74.9829 128.091 74.9844 128.091 74.986 128.091C74.6803 128.092 74.9228 128.091 74.9814 128.091C68.4615 128.093 63.6211 120.715 59.4811 116.562Z" fill="black"/>
<path d="M150 141.933C146.402 141.932 55.6092 142.01 47.5383 141.933C46.7031 141.925 38.3518 142.276 40.3729 139.411C41.8965 137.251 51.1277 134.976 53.1923 132.753C55.8694 129.871 51.5396 127.817 49.8662 129.766C48.3891 131.487 43.0075 135.923 36.8734 134.215C35.4903 133.83 32.256 146.001 35.196 146C42.9504 145.999 50.7047 145.999 58.4589 145.999C58.4589 145.997 148.061 146 150 146C150 143.967 150 144.475 150 141.933Z" fill="black"/>
<path d="M15.7857 113.116C14.0776 106.958 18.5137 101.556 20.2341 100.073C22.1831 98.3934 20.1297 94.0466 17.2474 96.7341C15.0246 98.8067 12.7497 108.073 10.5896 109.603C7.72431 111.632 8.08949 103.347 8.08132 102.509C8.00402 94.4069 8.08254 3.61316 8.08132 0.00124084C6.55083 0.000960475 6.04066 0.000535979 4 0.000488281C4.00017 1.94704 4.00365 91.4471 4.00139 91.4471C4.00139 99.2313 4.00174 107.015 4 114.8C3.99948 117.751 16.171 114.505 15.7857 113.116Z" fill="black"/>
<path d="M16.9635 125.417C17.0093 125.418 17.0548 125.419 17.0994 125.419C17.7948 125.309 16.5208 125.401 16.9635 125.417Z" fill="black"/>
<path d="M29.4633 138.067C25.645 137.979 24.9112 133.951 24.4606 130.922C24.003 127.844 20.1945 124.93 17.0995 125.419C17.0421 125.419 16.9983 125.418 16.9636 125.416C15.2293 125.374 12.6485 124.606 11.9989 122.777C11.5739 121.581 12.4271 118.237 10.1182 118.31C7.85622 118.382 7.57307 121.565 7.57324 123.074C7.57358 125.548 8.11417 126.644 10.0097 128.224C13.6963 131.297 9.62832 134.912 8.82502 136.26C6.5898 140.011 10.908 141.9 13.9084 140.097C19.0137 137.029 22.4684 140.413 24.0428 141.234C26.2997 142.412 28.101 142.911 30.2653 141.247C32.085 139.848 31.6764 138.118 29.4633 138.067Z" fill="black"/>
<path d="M29.6664 117.147C29.5199 116.545 26.484 115.03 25.8814 114.476C23.5177 112.304 23.3035 109.764 25.0512 107.154C25.5046 106.477 28.4909 103.646 28.3921 103.311C27.7988 101.3 22.163 104.774 21.3844 105.48C19.5286 107.164 17.9521 112.919 20.5997 116.384C21.5058 117.57 22.6399 118.692 23.9018 119.483C25.365 120.4 30.2907 119.713 29.6664 117.147Z" fill="black"/>
<path d="M40.5634 109.831C40.5504 109.831 40.5249 109.83 40.4922 109.83C40.5291 109.83 40.5521 109.831 40.5634 109.831Z" fill="black"/>
<path d="M40.3857 109.828C40.4229 109.828 40.4528 109.829 40.478 109.829C40.4498 109.829 40.4179 109.828 40.3857 109.828Z" fill="black"/>
<path d="M40.3651 112.431C41.9901 112.447 42.0575 109.859 40.3859 109.827C40.3808 109.827 40.3768 109.827 40.3719 109.827C40.3765 109.827 40.3813 109.827 40.3859 109.827C38.6807 109.795 38.6825 112.416 40.3651 112.431Z" fill="black"/>
<path d="M40.2323 109.825C40.189 109.824 40.1773 109.824 40.2323 109.825Z" fill="black"/>
<path d="M27.3398 124.589C27.3398 124.567 27.3398 124.551 27.3398 124.546C27.3408 124.551 27.3408 124.565 27.3398 124.589Z" fill="black"/>
<path d="M27.3404 124.589C27.3404 124.623 27.3394 124.673 27.3394 124.725C27.3404 124.661 27.3404 124.618 27.3404 124.589Z" fill="black"/>
<path d="M24.807 124.741C24.8414 126.347 27.3374 126.357 27.3395 124.728C27.3417 123.074 24.7724 123.123 24.807 124.741Z" fill="black"/>
<path d="M27.3401 124.81C27.3401 124.834 27.3401 124.855 27.3401 124.872C27.3391 124.857 27.3391 124.837 27.3401 124.81Z" fill="black"/>
<path d="M27.3394 124.809C27.3394 124.786 27.3394 124.76 27.3404 124.733C27.3394 124.763 27.3394 124.788 27.3394 124.809Z" fill="black"/>
<path d="M45.9541 129.239C46.6226 128.427 49.8274 122.622 47.7984 122.117C47.4604 122.033 44.7762 125.154 44.1224 125.639C41.6029 127.508 39.0646 127.408 36.7948 125.137C36.2162 124.558 34.5712 121.583 33.9657 121.463C31.3826 120.952 30.9207 125.921 31.8999 127.346C32.7442 128.575 33.9121 129.662 35.1335 130.517C38.7023 133.014 44.3611 131.175 45.9541 129.239Z" fill="black"/>
<path d="M19.7444 89.372C22.0176 90.4917 24.7444 90.9087 26.9062 92.0643C29.5271 93.4654 24.0374 95.9383 23.8266 97.8362C23.2961 102.611 27.948 99.1336 30.0476 99.1364C31.9983 99.1389 35.6822 99.8807 35.5116 102.565C35.3378 105.301 30.9627 104.659 31.9814 108.13C33.097 111.93 37.1957 109.701 38.5428 107.347C41.4702 102.232 38.1048 95.9327 34.3036 92.1176C30.1645 87.9636 22.8126 83.1065 22.8137 76.5644C22.8137 76.6233 22.8134 76.8664 22.8136 76.5598C22.8136 76.5499 22.8136 76.5507 22.8136 76.5576C22.8226 74.3118 23.8139 71.7468 25.8221 70.495C26.3688 70.1542 29.5061 69.9453 28.4142 68.3339C27.617 67.1574 26.7892 66.7271 25.3881 66.6116C22.5108 66.3741 15.8103 69.1397 17.4903 77.4712C17.8031 79.0221 16.4389 79.298 15.3307 79.332C13.6524 79.3835 13.9105 81.3535 13.9328 82.4573C13.989 85.2343 17.5373 88.2847 19.7444 89.372Z" fill="black"/>
</svg>
