<svg width="150" height="150" viewBox="0 0 150 150" fill="none" xmlns="http://www.w3.org/2000/svg">
<path d="M4 118C4 119.105 4.89543 120 6 120C7.10457 120 8 119.105 8 118H6H4ZM32 142C30.8954 142 30 142.895 30 144C30 145.105 30.8954 146 32 146V144V142ZM6 0H4C4 0.0915292 4 0.182972 4 0.274329C4 0.365687 4 0.456958 4 0.548144C4 0.639329 4 0.73043 4 0.821445C4 0.91246 4 1.00339 4 1.09424C4 1.18508 4 1.27584 4 1.36652C4 1.45719 4 1.54778 4 1.63829C4 1.7288 4 1.81922 4 1.90956C4 1.9999 4 2.09016 4 2.18033C4 2.2705 4 2.36059 4 2.45059C4 2.5406 4 2.63052 4 2.72036C4 2.8102 4 2.89996 4 2.98963C4 3.07931 4 3.1689 4 3.25841C4 3.34792 4 3.43734 4 3.52669C4 3.61603 4 3.7053 4 3.79448C4 3.88366 4 3.97276 4 4.06178C4 4.1508 4 4.23974 4 4.3286C4 4.41746 4 4.50624 4 4.59493C4 4.68363 4 4.77225 4 4.86078C4 4.94932 4 5.03777 4 5.12615C4 5.21453 4 5.30282 4 5.39104C4 5.47926 4 5.56739 4 5.65545C4 5.74351 4 5.83149 4 5.91939C4 6.00729 4 6.09511 4 6.18286C4 6.2706 4 6.35827 4 6.44585C4 6.53344 4 6.62095 4 6.70838C4 6.79581 4 6.88316 4 6.97044C4 7.05772 4 7.14491 4 7.23204C4 7.31916 4 7.4062 4 7.49317C4 7.58014 4 7.66703 4 7.75384C4 7.84066 4 7.92739 4 8.01406C4 8.10072 4 8.1873 4 8.27381C4 8.36032 4 8.44676 4 8.53312C4 8.61948 4 8.70576 4 8.79197C4 8.87818 4 8.96431 4 9.05037C4 9.13643 4 9.22241 4 9.30832C4 9.39423 4 9.48007 4 9.56583C4 9.65159 4 9.73728 4 9.82289C4 9.9085 4 9.99404 4 10.0795C4 10.165 4 10.2504 4 10.3357C4 10.421 4 10.5063 4 10.5914C4 10.6766 4 10.7617 4 10.8467C4 10.9318 4 11.0167 4 11.1016C4 11.1865 4 11.2713 4 11.356C4 11.4408 4 11.5255 4 11.6101C4 11.6946 4 11.7792 4 11.8636C4 11.9481 4 12.0325 4 12.1168C4 12.2011 4 12.2853 4 12.3695C4 12.4537 4 12.5378 4 12.6218C4 12.7059 4 12.7898 4 12.8737C4 12.9576 4 13.0414 4 13.1252C4 13.2089 4 13.2926 4 13.3762C4 13.4598 4 13.5434 4 13.6269C4 13.7104 4 13.7938 4 13.8771C4 13.9604 4 14.0437 4 14.1269C4 14.2101 4 14.2933 4 14.3763C4 14.4594 4 14.5424 4 14.6253C4 14.7083 4 14.7911 4 14.8739C4 14.9567 4 15.0395 4 15.1221C4 15.2048 4 15.2874 4 15.3699C4 15.4525 4 15.5349 4 15.6173C4 15.6997 4 15.7821 4 15.8643C4 15.9466 4 16.0288 4 16.1109C4 16.1931 4 16.2752 4 16.3572C4 16.4392 4 16.5211 4 16.603C4 16.6849 4 16.7667 4 16.8484C4 16.9302 4 17.0119 4 17.0935C4 17.1751 4 17.2567 4 17.3382C4 17.4196 4 17.5011 4 17.5824C4 17.6638 4 17.7451 4 17.8264C4 17.9076 4 17.9888 4 18.0699C4 18.151 4 18.2321 4 18.313C4 18.394 4 18.475 4 18.5558C4 18.6367 4 18.7175 4 18.7982C4 18.879 4 18.9597 4 19.0403C4 19.1209 4 19.2015 4 19.282C4 19.3625 4 19.4429 4 19.5233C4 19.6036 4 19.684 4 19.7642C4 19.8445 4 19.9247 4 20.0048C4 20.0849 4 20.165 4 20.245C4 20.325 4 20.405 4 20.4849C4 20.5648 4 20.6446 4 20.7244C4 20.8042 4 20.8839 4 20.9636C4 21.0432 4 21.1228 4 21.2024C4 21.2819 4 21.3614 4 21.4408C4 21.5202 4 21.5996 4 21.6789C4 21.7582 4 21.8375 4 21.9167C4 21.9959 4 22.075 4 22.1541C4 22.2332 4 22.3122 4 22.3912C4 22.4702 4 22.5491 4 22.6279C4 22.7068 4 22.7856 4 22.8643C4 22.9431 4 23.0218 4 23.1004C4 23.179 4 23.2576 4 23.3361C4 23.4147 4 23.4931 4 23.5715C4 23.65 4 23.7283 4 23.8066C4 23.8849 4 23.9632 4 24.0414C4 24.1196 4 24.1977 4 24.2758C4 24.3539 4 24.4319 4 24.5099C4 24.5879 4 24.6658 4 24.7437C4 24.8215 4 24.8994 4 24.9771C4 25.0549 4 25.1326 4 25.2103C4 25.2879 4 25.3655 4 25.4431C4 25.5206 4 25.5982 4 25.6756C4 25.7531 4 25.8305 4 25.9078C4 25.9852 4 26.0625 4 26.1397C4 26.2169 4 26.2941 4 26.3713C4 26.4484 4 26.5255 4 26.6026C4 26.6796 4 26.7566 4 26.8335C4 26.9105 4 26.9874 4 27.0642C4 27.1411 4 27.2179 4 27.2946C4 27.3713 4 27.448 4 27.5247C4 27.6013 4 27.6779 4 27.7545C4 27.831 4 27.9075 4 27.984C4 28.0604 4 28.1368 4 28.2132C4 28.2895 4 28.3658 4 28.4421C4 28.5183 4 28.5946 4 28.6707C4 28.7469 4 28.823 4 28.8991C4 28.9751 4 29.0511 4 29.1271C4 29.2031 4 29.279 4 29.3549C4 29.4308 4 29.5066 4 29.5824C4 29.6582 4 29.7339 4 29.8096C4 29.8853 4 29.961 4 30.0366C4 30.1122 4 30.1877 4 30.2633C4 30.3388 4 30.4142 4 30.4897C4 30.5651 4 30.6405 4 30.7158C4 30.7911 4 30.8664 4 30.9417C4 31.0169 4 31.0921 4 31.1673C4 31.2424 4 31.3175 4 31.3926C4 31.4677 4 31.5427 4 31.6177C4 31.6927 4 31.7676 4 31.8425C4 31.9174 4 31.9923 4 32.0671C4 32.1419 4 32.2167 4 32.2914C4 32.3661 4 32.4408 4 32.5155C4 32.5901 4 32.6647 4 32.7393C4 32.8138 4 32.8884 4 32.9628C4 33.0373 4 33.1118 4 33.1862C4 33.2606 4 33.3349 4 33.4092C4 33.4835 4 33.5578 4 33.6321C4 33.7063 4 33.7805 4 33.8546C4 33.9288 4 34.0029 4 34.077C4 34.1511 4 34.2251 4 34.2991C4 34.3731 4 34.4471 4 34.521C4 34.5949 4 34.6688 4 34.7426C4 34.8165 4 34.8903 4 34.9641C4 35.0378 4 35.1116 4 35.1853C4 35.2589 4 35.3326 4 35.4062C4 35.4798 4 35.5534 4 35.627C4 35.7005 4 35.774 4 35.8475C4 35.9209 4 35.9944 4 36.0678C4 36.1412 4 36.2145 4 36.2878C4 36.3612 4 36.4345 4 36.5077C4 36.581 4 36.6542 4 36.7274C4 36.8005 4 36.8737 4 36.9468C4 37.0199 4 37.093 4 37.166C4 37.2391 4 37.3121 4 37.385C4 37.458 4 37.531 4 37.6039C4 37.6768 4 37.7496 4 37.8225C4 37.8953 4 37.9681 4 38.0409C4 38.1136 4 38.1864 4 38.2591C4 38.3318 4 38.4044 4 38.4771C4 38.5497 4 38.6223 4 38.6949C4 38.7675 4 38.84 4 38.9125C4 38.985 4 39.0575 4 39.1299C4 39.2024 4 39.2748 4 39.3472C4 39.4196 4 39.4919 4 39.5642C4 39.6366 4 39.7088 4 39.7811C4 39.8534 4 39.9256 4 39.9978C4 40.07 4 40.1421 4 40.2143C4 40.2864 4 40.3585 4 40.4306C4 40.5027 4 40.5747 4 40.6467C4 40.7188 4 40.7907 4 40.8627C4 40.9347 4 41.0066 4 41.0785C4 41.1504 4 41.2223 4 41.2941C4 41.366 4 41.4378 4 41.5096C4 41.5813 4 41.6531 4 41.7248C4 41.7966 4 41.8683 4 41.94C4 42.0116 4 42.0833 4 42.1549C4 42.2265 4 42.2981 4 42.3697C4 42.4413 4 42.5128 4 42.5843C4 42.6559 4 42.7273 4 42.7988C4 42.8703 4 42.9417 4 43.0131C4 43.0845 4 43.1559 4 43.2273C4 43.2987 4 43.37 4 43.4413C4 43.5126 4 43.5839 4 43.6552C4 43.7264 4 43.7977 4 43.8689C4 43.9401 4 44.0113 4 44.0825C4 44.1536 4 44.2248 4 44.2959C4 44.367 4 44.4381 4 44.5092C4 44.5802 4 44.6513 4 44.7223C4 44.7934 4 44.8644 4 44.9353C4 45.0063 4 45.0773 4 45.1482C4 45.2191 4 45.2901 4 45.361C4 45.4318 4 45.5027 4 45.5736C4 45.6444 4 45.7152 4 45.786C4 45.8568 4 45.9276 4 45.9984C4 46.0692 4 46.1399 4 46.2106C4 46.2813 4 46.3521 4 46.4227C4 46.4934 4 46.5641 4 46.6347C4 46.7054 4 46.776 4 46.8466C4 46.9172 4 46.9878 4 47.0583C4 47.1289 4 47.1994 4 47.27C4 47.3405 4 47.411 4 47.4815C4 47.552 4 47.6224 4 47.6929C4 47.7633 4 47.8338 4 47.9042C4 47.9746 4 48.045 4 48.1154C4 48.1858 4 48.2561 4 48.3265C4 48.3968 4 48.4671 4 48.5375C4 48.6078 4 48.6781 4 48.7483C4 48.8186 4 48.8889 4 48.9591C4 49.0294 4 49.0996 4 49.1698C4 49.24 4 49.3102 4 49.3804C4 49.4506 4 49.5208 4 49.5909C4 49.6611 4 49.7312 4 49.8013C4 49.8714 4 49.9415 4 50.0116C4 50.0817 4 50.1518 4 50.2219C4 50.2919 4 50.362 4 50.432C4 50.5021 4 50.5721 4 50.6421C4 50.7121 4 50.7821 4 50.8521C4 50.9221 4 50.992 4 51.062C4 51.1319 4 51.2019 4 51.2718C4 51.3417 4 51.4117 4 51.4816C4 51.5515 4 51.6214 4 51.6912C4 51.7611 4 51.831 4 51.9009C4 51.9707 4 52.0406 4 52.1104C4 52.1802 4 52.2501 4 52.3199C4 52.3897 4 52.4595 4 52.5293C4 52.5991 4 52.6689 4 52.7386C4 52.8084 4 52.8782 4 52.9479C4 53.0177 4 53.0874 4 53.1572C4 53.2269 4 53.2966 4 53.3663C4 53.436 4 53.5057 4 53.5754C4 53.6451 4 53.7148 4 53.7845C4 53.8542 4 53.9239 4 53.9935C4 54.0632 4 54.1328 4 54.2025C4 54.2721 4 54.3418 4 54.4114C4 54.481 4 54.5507 4 54.6203C4 54.6899 4 54.7595 4 54.8291C4 54.8987 4 54.9683 4 55.0379C4 55.1075 4 55.1771 4 55.2467C4 55.3162 4 55.3858 4 55.4554C4 55.525 4 55.5945 4 55.6641C4 55.7336 4 55.8032 4 55.8727C4 55.9423 4 56.0118 4 56.0813C4 56.1509 4 56.2204 4 56.2899C4 56.3595 4 56.429 4 56.4985C4 56.568 4 56.6375 4 56.7071C4 56.7766 4 56.8461 4 56.9156C4 56.9851 4 57.0546 4 57.1241C4 57.1936 4 57.2631 4 57.3326C4 57.402 4 57.4715 4 57.541C4 57.6105 4 57.68 4 57.7495C4 57.819 4 57.8884 4 57.9579C4 58.0274 4 58.0969 4 58.1663C4 58.2358 4 58.3053 4 58.3748C4 58.4442 4 58.5137 4 58.5832C4 58.6526 4 58.7221 4 58.7916C4 58.8611 4 58.9305 4 59C4 59.0695 4 59.1389 4 59.2084C4 59.2779 4 59.3474 4 59.4168C4 59.4863 4 59.5558 4 59.6252C4 59.6947 4 59.7642 4 59.8337C4 59.9031 4 59.9726 4 60.0421C4 60.1116 4 60.181 4 60.2505C4 60.32 4 60.3895 4 60.459C4 60.5285 4 60.598 4 60.6674C4 60.7369 4 60.8064 4 60.8759C4 60.9454 4 61.0149 4 61.0844C4 61.1539 4 61.2234 4 61.2929C4 61.3625 4 61.432 4 61.5015C4 61.571 4 61.6405 4 61.7101C4 61.7796 4 61.8491 4 61.9187C4 61.9882 4 62.0577 4 62.1273C4 62.1968 4 62.2664 4 62.3359C4 62.4055 4 62.475 4 62.5446C4 62.6142 4 62.6838 4 62.7533C4 62.8229 4 62.8925 4 62.9621C4 63.0317 4 63.1013 4 63.1709C4 63.2405 4 63.3101 4 63.3797C4 63.4493 4 63.519 4 63.5886C4 63.6582 4 63.7279 4 63.7975C4 63.8672 4 63.9368 4 64.0065C4 64.0761 4 64.1458 4 64.2155C4 64.2852 4 64.3549 4 64.4246C4 64.4943 4 64.564 4 64.6337C4 64.7034 4 64.7731 4 64.8428C4 64.9126 4 64.9823 4 65.0521C4 65.1218 4 65.1916 4 65.2614C4 65.3311 4 65.4009 4 65.4707C4 65.5405 4 65.6103 4 65.6801C4 65.7499 4 65.8198 4 65.8896C4 65.9594 4 66.0293 4 66.0992C4 66.169 4 66.2389 4 66.3088C4 66.3786 4 66.4485 4 66.5184C4 66.5883 4 66.6583 4 66.7282C4 66.7981 4 66.8681 4 66.938C4 67.008 4 67.0779 4 67.1479C4 67.2179 4 67.2879 4 67.3579C4 67.4279 4 67.4979 4 67.568C4 67.638 4 67.7081 4 67.7781C4 67.8482 4 67.9183 4 67.9884C4 68.0585 4 68.1286 4 68.1987C4 68.2688 4 68.3389 4 68.4091C4 68.4792 4 68.5494 4 68.6196C4 68.6898 4 68.76 4 68.8302C4 68.9004 4 68.9706 4 69.0409C4 69.1111 4 69.1814 4 69.2517C4 69.3219 4 69.3922 4 69.4625C4 69.5329 4 69.6032 4 69.6735C4 69.7439 4 69.8142 4 69.8846C4 69.955 4 70.0254 4 70.0958C4 70.1662 4 70.2367 4 70.3071C4 70.3776 4 70.448 4 70.5185C4 70.589 4 70.6595 4 70.73C4 70.8006 4 70.8711 4 70.9417C4 71.0122 4 71.0828 4 71.1534C4 71.224 4 71.2946 4 71.3653C4 71.4359 4 71.5066 4 71.5773C4 71.6479 4 71.7187 4 71.7894C4 71.8601 4 71.9308 4 72.0016C4 72.0724 4 72.1432 4 72.214C4 72.2848 4 72.3556 4 72.4264C4 72.4973 4 72.5682 4 72.639C4 72.7099 4 72.7809 4 72.8518C4 72.9227 4 72.9937 4 73.0647C4 73.1356 4 73.2066 4 73.2777C4 73.3487 4 73.4198 4 73.4908C4 73.5619 4 73.633 4 73.7041C4 73.7752 4 73.8464 4 73.9175C4 73.9887 4 74.0599 4 74.1311C4 74.2023 4 74.2736 4 74.3448C4 74.4161 4 74.4874 4 74.5587C4 74.63 4 74.7013 4 74.7727C4 74.8441 4 74.9155 4 74.9869C4 75.0583 4 75.1297 4 75.2012C4 75.2727 4 75.3441 4 75.4157C4 75.4872 4 75.5587 4 75.6303C4 75.7019 4 75.7735 4 75.8451C4 75.9167 4 75.9884 4 76.06C4 76.1317 4 76.2034 4 76.2752C4 76.3469 4 76.4187 4 76.4904C4 76.5622 4 76.634 4 76.7059C4 76.7777 4 76.8496 4 76.9215C4 76.9934 4 77.0653 4 77.1373C4 77.2093 4 77.2812 4 77.3533C4 77.4253 4 77.4973 4 77.5694C4 77.6415 4 77.7136 4 77.7857C4 77.8579 4 77.93 4 78.0022C4 78.0744 4 78.1466 4 78.2189C4 78.2912 4 78.3634 4 78.4358C4 78.5081 4 78.5804 4 78.6528C4 78.7252 4 78.7976 4 78.8701C4 78.9425 4 79.015 4 79.0875C4 79.16 4 79.2325 4 79.3051C4 79.3777 4 79.4503 4 79.5229C4 79.5956 4 79.6682 4 79.7409C4 79.8136 4 79.8864 4 79.9591C4 80.0319 4 80.1047 4 80.1775C4 80.2504 4 80.3232 4 80.3961C4 80.469 4 80.542 4 80.615C4 80.6879 4 80.7609 4 80.834C4 80.907 4 80.9801 4 81.0532C4 81.1263 4 81.1995 4 81.2726C4 81.3458 4 81.419 4 81.4923C4 81.5655 4 81.6388 4 81.7122C4 81.7855 4 81.8588 4 81.9322C4 82.0056 4 82.0791 4 82.1525C4 82.226 4 82.2995 4 82.373C4 82.4466 4 82.5202 4 82.5938C4 82.6674 4 82.7411 4 82.8148C4 82.8884 4 82.9622 4 83.0359C4 83.1097 4 83.1835 4 83.2574C4 83.3312 4 83.4051 4 83.479C4 83.5529 4 83.6269 4 83.7009C4 83.7749 4 83.8489 4 83.923C4 83.9971 4 84.0712 4 84.1453C4 84.2195 4 84.2937 4 84.3679C4 84.4422 4 84.5164 4 84.5908C4 84.6651 4 84.7394 4 84.8138C4 84.8882 4 84.9627 4 85.0372C4 85.1116 4 85.1862 4 85.2607C4 85.3353 4 85.4099 4 85.4845C4 85.5592 4 85.6339 4 85.7086C4 85.7833 4 85.8581 4 85.9329C4 86.0077 4 86.0826 4 86.1575C4 86.2324 4 86.3073 4 86.3823C4 86.4573 4 86.5323 4 86.6074C4 86.6825 4 86.7576 4 86.8327C4 86.9079 4 86.9831 4 87.0583C4 87.1336 4 87.2089 4 87.2842C4 87.3595 4 87.4349 4 87.5103C4 87.5858 4 87.6612 4 87.7367C4 87.8123 4 87.8878 4 87.9634C4 88.039 4 88.1147 4 88.1904C4 88.2661 4 88.3418 4 88.4176C4 88.4934 4 88.5692 4 88.6451C4 88.721 4 88.7969 4 88.8729C4 88.9489 4 89.0249 4 89.1009C4 89.177 4 89.2531 4 89.3293C4 89.4054 4 89.4817 4 89.5579C4 89.6342 4 89.7105 4 89.7868C4 89.8632 4 89.9396 4 90.016C4 90.0925 4 90.169 4 90.2455C4 90.3221 4 90.3987 4 90.4753C4 90.552 4 90.6286 4 90.7054C4 90.7821 4 90.8589 4 90.9358C4 91.0126 4 91.0895 4 91.1665C4 91.2434 4 91.3204 4 91.3974C4 91.4745 4 91.5516 4 91.6287C4 91.7059 4 91.7831 4 91.8603C4 91.9375 4 92.0148 4 92.0922C4 92.1695 4 92.2469 4 92.3244C4 92.4018 4 92.4793 4 92.5569C4 92.6345 4 92.7121 4 92.7897C4 92.8674 4 92.9451 4 93.0229C4 93.1006 4 93.1785 4 93.2563C4 93.3342 4 93.4121 4 93.4901C4 93.5681 4 93.6461 4 93.7242C4 93.8023 4 93.8804 4 93.9586C4 94.0368 4 94.1151 4 94.1934C4 94.2717 4 94.35 4 94.4285C4 94.5069 4 94.5853 4 94.6639C4 94.7424 4 94.821 4 94.8996C4 94.9782 4 95.0569 4 95.1357C4 95.2144 4 95.2932 4 95.3721C4 95.4509 4 95.5298 4 95.6088C4 95.6878 4 95.7668 4 95.8459C4 95.925 4 96.0041 4 96.0833C4 96.1625 4 96.2418 4 96.3211C4 96.4004 4 96.4798 4 96.5592C4 96.6386 4 96.7181 4 96.7976C4 96.8772 4 96.9568 4 97.0364C4 97.1161 4 97.1958 4 97.2756C4 97.3554 4 97.4352 4 97.5151C4 97.595 4 97.675 4 97.755C4 97.835 4 97.9151 4 97.9952C4 98.0753 4 98.1555 4 98.2358C4 98.316 4 98.3964 4 98.4767C4 98.5571 4 98.6375 4 98.718C4 98.7985 4 98.8791 4 98.9597C4 99.0403 4 99.121 4 99.2018C4 99.2825 4 99.3633 4 99.4442C4 99.525 4 99.606 4 99.687C4 99.7679 4 99.849 4 99.9301C4 100.011 4 100.092 4 100.174C4 100.255 4 100.336 4 100.418C4 100.499 4 100.58 4 100.662C4 100.743 4 100.825 4 100.907C4 100.988 4 101.07 4 101.152C4 101.233 4 101.315 4 101.397C4 101.479 4 101.561 4 101.643C4 101.725 4 101.807 4 101.889C4 101.971 4 102.053 4 102.136C4 102.218 4 102.3 4 102.383C4 102.465 4 102.548 4 102.63C4 102.713 4 102.795 4 102.878C4 102.961 4 103.043 4 103.126C4 103.209 4 103.292 4 103.375C4 103.458 4 103.541 4 103.624C4 103.707 4 103.79 4 103.873C4 103.956 4 104.04 4 104.123C4 104.206 4 104.29 4 104.373C4 104.457 4 104.54 4 104.624C4 104.707 4 104.791 4 104.875C4 104.959 4 105.042 4 105.126C4 105.21 4 105.294 4 105.378C4 105.462 4 105.546 4 105.63C4 105.715 4 105.799 4 105.883C4 105.968 4 106.052 4 106.136C4 106.221 4 106.305 4 106.39C4 106.475 4 106.559 4 106.644C4 106.729 4 106.814 4 106.898C4 106.983 4 107.068 4 107.153C4 107.238 4 107.323 4 107.409C4 107.494 4 107.579 4 107.664C4 107.75 4 107.835 4 107.92C4 108.006 4 108.091 4 108.177C4 108.263 4 108.348 4 108.434C4 108.52 4 108.606 4 108.692C4 108.778 4 108.864 4 108.95C4 109.036 4 109.122 4 109.208C4 109.294 4 109.381 4 109.467C4 109.553 4 109.64 4 109.726C4 109.813 4 109.899 4 109.986C4 110.073 4 110.159 4 110.246C4 110.333 4 110.42 4 110.507C4 110.594 4 110.681 4 110.768C4 110.855 4 110.942 4 111.03C4 111.117 4 111.204 4 111.292C4 111.379 4 111.467 4 111.554C4 111.642 4 111.729 4 111.817C4 111.905 4 111.993 4 112.081C4 112.169 4 112.256 4 112.345C4 112.433 4 112.521 4 112.609C4 112.697 4 112.785 4 112.874C4 112.962 4 113.051 4 113.139C4 113.228 4 113.316 4 113.405C4 113.494 4 113.583 4 113.671C4 113.76 4 113.849 4 113.938C4 114.027 4 114.116 4 114.206C4 114.295 4 114.384 4 114.473C4 114.563 4 114.652 4 114.742C4 114.831 4 114.921 4 115.01C4 115.1 4 115.19 4 115.28C4 115.369 4 115.459 4 115.549C4 115.639 4 115.729 4 115.82C4 115.91 4 116 4 116.09C4 116.181 4 116.271 4 116.362C4 116.452 4 116.543 4 116.633C4 116.724 4 116.815 4 116.906C4 116.997 4 117.088 4 117.179C4 117.27 4 117.361 4 117.452C4 117.543 4 117.634 4 117.726C4 117.817 4 117.908 4 118H6H8C8 117.908 8 117.817 8 117.726C8 117.634 8 117.543 8 117.452C8 117.361 8 117.27 8 117.179C8 117.088 8 116.997 8 116.906C8 116.815 8 116.724 8 116.633C8 116.543 8 116.452 8 116.362C8 116.271 8 116.181 8 116.09C8 116 8 115.91 8 115.82C8 115.729 8 115.639 8 115.549C8 115.459 8 115.369 8 115.28C8 115.19 8 115.1 8 115.01C8 114.921 8 114.831 8 114.742C8 114.652 8 114.563 8 114.473C8 114.384 8 114.295 8 114.206C8 114.116 8 114.027 8 113.938C8 113.849 8 113.76 8 113.671C8 113.583 8 113.494 8 113.405C8 113.316 8 113.228 8 113.139C8 113.051 8 112.962 8 112.874C8 112.785 8 112.697 8 112.609C8 112.521 8 112.433 8 112.345C8 112.256 8 112.169 8 112.081C8 111.993 8 111.905 8 111.817C8 111.729 8 111.642 8 111.554C8 111.467 8 111.379 8 111.292C8 111.204 8 111.117 8 111.03C8 110.942 8 110.855 8 110.768C8 110.681 8 110.594 8 110.507C8 110.42 8 110.333 8 110.246C8 110.159 8 110.073 8 109.986C8 109.899 8 109.813 8 109.726C8 109.64 8 109.553 8 109.467C8 109.381 8 109.294 8 109.208C8 109.122 8 109.036 8 108.95C8 108.864 8 108.778 8 108.692C8 108.606 8 108.52 8 108.434C8 108.348 8 108.263 8 108.177C8 108.091 8 108.006 8 107.92C8 107.835 8 107.75 8 107.664C8 107.579 8 107.494 8 107.409C8 107.323 8 107.238 8 107.153C8 107.068 8 106.983 8 106.898C8 106.814 8 106.729 8 106.644C8 106.559 8 106.475 8 106.39C8 106.305 8 106.221 8 106.136C8 106.052 8 105.968 8 105.883C8 105.799 8 105.715 8 105.63C8 105.546 8 105.462 8 105.378C8 105.294 8 105.21 8 105.126C8 105.042 8 104.959 8 104.875C8 104.791 8 104.707 8 104.624C8 104.54 8 104.457 8 104.373C8 104.29 8 104.206 8 104.123C8 104.04 8 103.956 8 103.873C8 103.79 8 103.707 8 103.624C8 103.541 8 103.458 8 103.375C8 103.292 8 103.209 8 103.126C8 103.043 8 102.961 8 102.878C8 102.795 8 102.713 8 102.63C8 102.548 8 102.465 8 102.383C8 102.3 8 102.218 8 102.136C8 102.053 8 101.971 8 101.889C8 101.807 8 101.725 8 101.643C8 101.561 8 101.479 8 101.397C8 101.315 8 101.233 8 101.152C8 101.07 8 100.988 8 100.907C8 100.825 8 100.743 8 100.662C8 100.58 8 100.499 8 100.418C8 100.336 8 100.255 8 100.174C8 100.092 8 100.011 8 99.9301C8 99.849 8 99.7679 8 99.687C8 99.606 8 99.525 8 99.4442C8 99.3633 8 99.2825 8 99.2018C8 99.121 8 99.0403 8 98.9597C8 98.8791 8 98.7985 8 98.718C8 98.6375 8 98.5571 8 98.4767C8 98.3964 8 98.316 8 98.2358C8 98.1555 8 98.0753 8 97.9952C8 97.9151 8 97.835 8 97.755C8 97.675 8 97.595 8 97.5151C8 97.4352 8 97.3554 8 97.2756C8 97.1958 8 97.1161 8 97.0364C8 96.9568 8 96.8772 8 96.7976C8 96.7181 8 96.6386 8 96.5592C8 96.4798 8 96.4004 8 96.3211C8 96.2418 8 96.1625 8 96.0833C8 96.0041 8 95.925 8 95.8459C8 95.7668 8 95.6878 8 95.6088C8 95.5298 8 95.4509 8 95.3721C8 95.2932 8 95.2144 8 95.1357C8 95.0569 8 94.9782 8 94.8996C8 94.821 8 94.7424 8 94.6639C8 94.5853 8 94.5069 8 94.4285C8 94.35 8 94.2717 8 94.1934C8 94.1151 8 94.0368 8 93.9586C8 93.8804 8 93.8023 8 93.7242C8 93.6461 8 93.5681 8 93.4901C8 93.4121 8 93.3342 8 93.2563C8 93.1785 8 93.1006 8 93.0229C8 92.9451 8 92.8674 8 92.7897C8 92.7121 8 92.6345 8 92.5569C8 92.4793 8 92.4018 8 92.3244C8 92.2469 8 92.1695 8 92.0922C8 92.0148 8 91.9375 8 91.8603C8 91.7831 8 91.7059 8 91.6287C8 91.5516 8 91.4745 8 91.3974C8 91.3204 8 91.2434 8 91.1665C8 91.0895 8 91.0126 8 90.9358C8 90.8589 8 90.7821 8 90.7054C8 90.6286 8 90.552 8 90.4753C8 90.3987 8 90.3221 8 90.2455C8 90.169 8 90.0925 8 90.016C8 89.9396 8 89.8632 8 89.7868C8 89.7105 8 89.6342 8 89.5579C8 89.4817 8 89.4054 8 89.3293C8 89.2531 8 89.177 8 89.1009C8 89.0249 8 88.9489 8 88.8729C8 88.7969 8 88.721 8 88.6451C8 88.5692 8 88.4934 8 88.4176C8 88.3418 8 88.2661 8 88.1904C8 88.1147 8 88.039 8 87.9634C8 87.8878 8 87.8123 8 87.7367C8 87.6612 8 87.5858 8 87.5103C8 87.4349 8 87.3595 8 87.2842C8 87.2089 8 87.1336 8 87.0583C8 86.9831 8 86.9079 8 86.8327C8 86.7576 8 86.6825 8 86.6074C8 86.5323 8 86.4573 8 86.3823C8 86.3073 8 86.2324 8 86.1575C8 86.0826 8 86.0077 8 85.9329C8 85.8581 8 85.7833 8 85.7086C8 85.6339 8 85.5592 8 85.4845C8 85.4099 8 85.3353 8 85.2607C8 85.1862 8 85.1116 8 85.0372C8 84.9627 8 84.8882 8 84.8138C8 84.7394 8 84.6651 8 84.5908C8 84.5164 8 84.4422 8 84.3679C8 84.2937 8 84.2195 8 84.1453C8 84.0712 8 83.9971 8 83.923C8 83.8489 8 83.7749 8 83.7009C8 83.6269 8 83.5529 8 83.479C8 83.4051 8 83.3312 8 83.2574C8 83.1835 8 83.1097 8 83.0359C8 82.9622 8 82.8884 8 82.8148C8 82.7411 8 82.6674 8 82.5938C8 82.5202 8 82.4466 8 82.373C8 82.2995 8 82.226 8 82.1525C8 82.0791 8 82.0056 8 81.9322C8 81.8588 8 81.7855 8 81.7122C8 81.6388 8 81.5655 8 81.4923C8 81.419 8 81.3458 8 81.2726C8 81.1995 8 81.1263 8 81.0532C8 80.9801 8 80.907 8 80.834C8 80.7609 8 80.6879 8 80.615C8 80.542 8 80.469 8 80.3961C8 80.3232 8 80.2504 8 80.1775C8 80.1047 8 80.0319 8 79.9591C8 79.8864 8 79.8136 8 79.7409C8 79.6682 8 79.5956 8 79.5229C8 79.4503 8 79.3777 8 79.3051C8 79.2325 8 79.16 8 79.0875C8 79.015 8 78.9425 8 78.8701C8 78.7976 8 78.7252 8 78.6528C8 78.5804 8 78.5081 8 78.4358C8 78.3634 8 78.2912 8 78.2189C8 78.1466 8 78.0744 8 78.0022C8 77.93 8 77.8579 8 77.7857C8 77.7136 8 77.6415 8 77.5694C8 77.4973 8 77.4253 8 77.3533C8 77.2812 8 77.2093 8 77.1373C8 77.0653 8 76.9934 8 76.9215C8 76.8496 8 76.7777 8 76.7059C8 76.634 8 76.5622 8 76.4904C8 76.4187 8 76.3469 8 76.2752C8 76.2034 8 76.1317 8 76.06C8 75.9884 8 75.9167 8 75.8451C8 75.7735 8 75.7019 8 75.6303C8 75.5587 8 75.4872 8 75.4157C8 75.3441 8 75.2727 8 75.2012C8 75.1297 8 75.0583 8 74.9869C8 74.9155 8 74.8441 8 74.7727C8 74.7013 8 74.63 8 74.5587C8 74.4874 8 74.4161 8 74.3448C8 74.2736 8 74.2023 8 74.1311C8 74.0599 8 73.9887 8 73.9175C8 73.8464 8 73.7752 8 73.7041C8 73.633 8 73.5619 8 73.4908C8 73.4198 8 73.3487 8 73.2777C8 73.2066 8 73.1356 8 73.0647C8 72.9937 8 72.9227 8 72.8518C8 72.7809 8 72.7099 8 72.639C8 72.5682 8 72.4973 8 72.4264C8 72.3556 8 72.2848 8 72.214C8 72.1432 8 72.0724 8 72.0016C8 71.9308 8 71.8601 8 71.7894C8 71.7187 8 71.6479 8 71.5773C8 71.5066 8 71.4359 8 71.3653C8 71.2946 8 71.224 8 71.1534C8 71.0828 8 71.0122 8 70.9417C8 70.8711 8 70.8006 8 70.73C8 70.6595 8 70.589 8 70.5185C8 70.448 8 70.3776 8 70.3071C8 70.2367 8 70.1662 8 70.0958C8 70.0254 8 69.955 8 69.8846C8 69.8142 8 69.7439 8 69.6735C8 69.6032 8 69.5329 8 69.4625C8 69.3922 8 69.3219 8 69.2517C8 69.1814 8 69.1111 8 69.0409C8 68.9706 8 68.9004 8 68.8302C8 68.76 8 68.6898 8 68.6196C8 68.5494 8 68.4792 8 68.4091C8 68.3389 8 68.2688 8 68.1987C8 68.1286 8 68.0585 8 67.9884C8 67.9183 8 67.8482 8 67.7781C8 67.7081 8 67.638 8 67.568C8 67.4979 8 67.4279 8 67.3579C8 67.2879 8 67.2179 8 67.1479C8 67.0779 8 67.008 8 66.938C8 66.8681 8 66.7981 8 66.7282C8 66.6583 8 66.5883 8 66.5184C8 66.4485 8 66.3786 8 66.3088C8 66.2389 8 66.169 8 66.0992C8 66.0293 8 65.9594 8 65.8896C8 65.8198 8 65.7499 8 65.6801C8 65.6103 8 65.5405 8 65.4707C8 65.4009 8 65.3311 8 65.2614C8 65.1916 8 65.1218 8 65.0521C8 64.9823 8 64.9126 8 64.8428C8 64.7731 8 64.7034 8 64.6337C8 64.564 8 64.4943 8 64.4246C8 64.3549 8 64.2852 8 64.2155C8 64.1458 8 64.0761 8 64.0065C8 63.9368 8 63.8672 8 63.7975C8 63.7279 8 63.6582 8 63.5886C8 63.519 8 63.4493 8 63.3797C8 63.3101 8 63.2405 8 63.1709C8 63.1013 8 63.0317 8 62.9621C8 62.8925 8 62.8229 8 62.7533C8 62.6838 8 62.6142 8 62.5446C8 62.475 8 62.4055 8 62.3359C8 62.2664 8 62.1968 8 62.1273C8 62.0577 8 61.9882 8 61.9187C8 61.8491 8 61.7796 8 61.7101C8 61.6405 8 61.571 8 61.5015C8 61.432 8 61.3625 8 61.2929C8 61.2234 8 61.1539 8 61.0844C8 61.0149 8 60.9454 8 60.8759C8 60.8064 8 60.7369 8 60.6674C8 60.598 8 60.5285 8 60.459C8 60.3895 8 60.32 8 60.2505C8 60.181 8 60.1116 8 60.0421C8 59.9726 8 59.9031 8 59.8337C8 59.7642 8 59.6947 8 59.6252C8 59.5558 8 59.4863 8 59.4168C8 59.3474 8 59.2779 8 59.2084C8 59.1389 8 59.0695 8 59C8 58.9305 8 58.8611 8 58.7916C8 58.7221 8 58.6526 8 58.5832C8 58.5137 8 58.4442 8 58.3748C8 58.3053 8 58.2358 8 58.1663C8 58.0969 8 58.0274 8 57.9579C8 57.8884 8 57.819 8 57.7495C8 57.68 8 57.6105 8 57.541C8 57.4715 8 57.402 8 57.3326C8 57.2631 8 57.1936 8 57.1241C8 57.0546 8 56.9851 8 56.9156C8 56.8461 8 56.7766 8 56.7071C8 56.6375 8 56.568 8 56.4985C8 56.429 8 56.3595 8 56.2899C8 56.2204 8 56.1509 8 56.0813C8 56.0118 8 55.9423 8 55.8727C8 55.8032 8 55.7336 8 55.6641C8 55.5945 8 55.525 8 55.4554C8 55.3858 8 55.3162 8 55.2467C8 55.1771 8 55.1075 8 55.0379C8 54.9683 8 54.8987 8 54.8291C8 54.7595 8 54.6899 8 54.6203C8 54.5507 8 54.481 8 54.4114C8 54.3418 8 54.2721 8 54.2025C8 54.1328 8 54.0632 8 53.9935C8 53.9239 8 53.8542 8 53.7845C8 53.7148 8 53.6451 8 53.5754C8 53.5057 8 53.436 8 53.3663C8 53.2966 8 53.2269 8 53.1572C8 53.0874 8 53.0177 8 52.9479C8 52.8782 8 52.8084 8 52.7386C8 52.6689 8 52.5991 8 52.5293C8 52.4595 8 52.3897 8 52.3199C8 52.2501 8 52.1802 8 52.1104C8 52.0406 8 51.9707 8 51.9009C8 51.831 8 51.7611 8 51.6912C8 51.6214 8 51.5515 8 51.4816C8 51.4117 8 51.3417 8 51.2718C8 51.2019 8 51.1319 8 51.062C8 50.992 8 50.9221 8 50.8521C8 50.7821 8 50.7121 8 50.6421C8 50.5721 8 50.5021 8 50.432C8 50.362 8 50.2919 8 50.2219C8 50.1518 8 50.0817 8 50.0116C8 49.9415 8 49.8714 8 49.8013C8 49.7312 8 49.6611 8 49.5909C8 49.5208 8 49.4506 8 49.3804C8 49.3102 8 49.24 8 49.1698C8 49.0996 8 49.0294 8 48.9591C8 48.8889 8 48.8186 8 48.7483C8 48.6781 8 48.6078 8 48.5375C8 48.4671 8 48.3968 8 48.3265C8 48.2561 8 48.1858 8 48.1154C8 48.045 8 47.9746 8 47.9042C8 47.8338 8 47.7633 8 47.6929C8 47.6224 8 47.552 8 47.4815C8 47.411 8 47.3405 8 47.27C8 47.1994 8 47.1289 8 47.0583C8 46.9878 8 46.9172 8 46.8466C8 46.776 8 46.7054 8 46.6347C8 46.5641 8 46.4934 8 46.4227C8 46.3521 8 46.2813 8 46.2106C8 46.1399 8 46.0692 8 45.9984C8 45.9276 8 45.8568 8 45.786C8 45.7152 8 45.6444 8 45.5736C8 45.5027 8 45.4318 8 45.361C8 45.2901 8 45.2191 8 45.1482C8 45.0773 8 45.0063 8 44.9353C8 44.8644 8 44.7934 8 44.7223C8 44.6513 8 44.5802 8 44.5092C8 44.4381 8 44.367 8 44.2959C8 44.2248 8 44.1536 8 44.0825C8 44.0113 8 43.9401 8 43.8689C8 43.7977 8 43.7264 8 43.6552C8 43.5839 8 43.5126 8 43.4413C8 43.37 8 43.2987 8 43.2273C8 43.1559 8 43.0845 8 43.0131C8 42.9417 8 42.8703 8 42.7988C8 42.7273 8 42.6559 8 42.5843C8 42.5128 8 42.4413 8 42.3697C8 42.2981 8 42.2265 8 42.1549C8 42.0833 8 42.0116 8 41.94C8 41.8683 8 41.7966 8 41.7248C8 41.6531 8 41.5813 8 41.5096C8 41.4378 8 41.366 8 41.2941C8 41.2223 8 41.1504 8 41.0785C8 41.0066 8 40.9347 8 40.8627C8 40.7907 8 40.7188 8 40.6467C8 40.5747 8 40.5027 8 40.4306C8 40.3585 8 40.2864 8 40.2143C8 40.1421 8 40.07 8 39.9978C8 39.9256 8 39.8534 8 39.7811C8 39.7088 8 39.6366 8 39.5642C8 39.4919 8 39.4196 8 39.3472C8 39.2748 8 39.2024 8 39.1299C8 39.0575 8 38.985 8 38.9125C8 38.84 8 38.7675 8 38.6949C8 38.6223 8 38.5497 8 38.4771C8 38.4044 8 38.3318 8 38.2591C8 38.1864 8 38.1136 8 38.0409C8 37.9681 8 37.8953 8 37.8225C8 37.7496 8 37.6768 8 37.6039C8 37.531 8 37.458 8 37.385C8 37.3121 8 37.2391 8 37.166C8 37.093 8 37.0199 8 36.9468C8 36.8737 8 36.8005 8 36.7274C8 36.6542 8 36.581 8 36.5077C8 36.4345 8 36.3612 8 36.2878C8 36.2145 8 36.1412 8 36.0678C8 35.9944 8 35.9209 8 35.8475C8 35.774 8 35.7005 8 35.627C8 35.5534 8 35.4798 8 35.4062C8 35.3326 8 35.2589 8 35.1853C8 35.1116 8 35.0378 8 34.9641C8 34.8903 8 34.8165 8 34.7426C8 34.6688 8 34.5949 8 34.521C8 34.4471 8 34.3731 8 34.2991C8 34.2251 8 34.1511 8 34.077C8 34.0029 8 33.9288 8 33.8546C8 33.7805 8 33.7063 8 33.6321C8 33.5578 8 33.4835 8 33.4092C8 33.3349 8 33.2606 8 33.1862C8 33.1118 8 33.0373 8 32.9628C8 32.8884 8 32.8138 8 32.7393C8 32.6647 8 32.5901 8 32.5155C8 32.4408 8 32.3661 8 32.2914C8 32.2167 8 32.1419 8 32.0671C8 31.9923 8 31.9174 8 31.8425C8 31.7676 8 31.6927 8 31.6177C8 31.5427 8 31.4677 8 31.3926C8 31.3175 8 31.2424 8 31.1673C8 31.0921 8 31.0169 8 30.9417C8 30.8664 8 30.7911 8 30.7158C8 30.6405 8 30.5651 8 30.4897C8 30.4142 8 30.3388 8 30.2633C8 30.1877 8 30.1122 8 30.0366C8 29.961 8 29.8853 8 29.8096C8 29.7339 8 29.6582 8 29.5824C8 29.5066 8 29.4308 8 29.3549C8 29.279 8 29.2031 8 29.1271C8 29.0511 8 28.9751 8 28.8991C8 28.823 8 28.7469 8 28.6707C8 28.5946 8 28.5183 8 28.4421C8 28.3658 8 28.2895 8 28.2132C8 28.1368 8 28.0604 8 27.984C8 27.9075 8 27.831 8 27.7545C8 27.6779 8 27.6013 8 27.5247C8 27.448 8 27.3713 8 27.2946C8 27.2179 8 27.1411 8 27.0642C8 26.9874 8 26.9105 8 26.8335C8 26.7566 8 26.6796 8 26.6026C8 26.5255 8 26.4484 8 26.3713C8 26.2941 8 26.2169 8 26.1397C8 26.0625 8 25.9852 8 25.9078C8 25.8305 8 25.7531 8 25.6756C8 25.5982 8 25.5206 8 25.4431C8 25.3655 8 25.2879 8 25.2103C8 25.1326 8 25.0549 8 24.9771C8 24.8994 8 24.8215 8 24.7437C8 24.6658 8 24.5879 8 24.5099C8 24.4319 8 24.3539 8 24.2758C8 24.1977 8 24.1196 8 24.0414C8 23.9632 8 23.8849 8 23.8066C8 23.7283 8 23.65 8 23.5715C8 23.4931 8 23.4147 8 23.3361C8 23.2576 8 23.179 8 23.1004C8 23.0218 8 22.9431 8 22.8643C8 22.7856 8 22.7068 8 22.6279C8 22.5491 8 22.4702 8 22.3912C8 22.3122 8 22.2332 8 22.1541C8 22.075 8 21.9959 8 21.9167C8 21.8375 8 21.7582 8 21.6789C8 21.5996 8 21.5202 8 21.4408C8 21.3614 8 21.2819 8 21.2024C8 21.1228 8 21.0432 8 20.9636C8 20.8839 8 20.8042 8 20.7244C8 20.6446 8 20.5648 8 20.4849C8 20.405 8 20.325 8 20.245C8 20.165 8 20.0849 8 20.0048C8 19.9247 8 19.8445 8 19.7642C8 19.684 8 19.6036 8 19.5233C8 19.4429 8 19.3625 8 19.282C8 19.2015 8 19.1209 8 19.0403C8 18.9597 8 18.879 8 18.7982C8 18.7175 8 18.6367 8 18.5558C8 18.475 8 18.394 8 18.313C8 18.2321 8 18.151 8 18.0699C8 17.9888 8 17.9076 8 17.8264C8 17.7451 8 17.6638 8 17.5824C8 17.5011 8 17.4196 8 17.3382C8 17.2567 8 17.1751 8 17.0935C8 17.0119 8 16.9302 8 16.8484C8 16.7667 8 16.6849 8 16.603C8 16.5211 8 16.4392 8 16.3572C8 16.2752 8 16.1931 8 16.1109C8 16.0288 8 15.9466 8 15.8643C8 15.7821 8 15.6997 8 15.6173C8 15.5349 8 15.4525 8 15.3699C8 15.2874 8 15.2048 8 15.1221C8 15.0395 8 14.9567 8 14.8739C8 14.7911 8 14.7083 8 14.6253C8 14.5424 8 14.4594 8 14.3763C8 14.2933 8 14.2101 8 14.1269C8 14.0437 8 13.9604 8 13.8771C8 13.7938 8 13.7104 8 13.6269C8 13.5434 8 13.4598 8 13.3762C8 13.2926 8 13.2089 8 13.1252C8 13.0414 8 12.9576 8 12.8737C8 12.7898 8 12.7059 8 12.6218C8 12.5378 8 12.4537 8 12.3695C8 12.2853 8 12.2011 8 12.1168C8 12.0325 8 11.9481 8 11.8636C8 11.7792 8 11.6946 8 11.6101C8 11.5255 8 11.4408 8 11.356C8 11.2713 8 11.1865 8 11.1016C8 11.0167 8 10.9318 8 10.8467C8 10.7617 8 10.6766 8 10.5914C8 10.5063 8 10.421 8 10.3357C8 10.2504 8 10.165 8 10.0795C8 9.99404 8 9.9085 8 9.82289C8 9.73728 8 9.65159 8 9.56583C8 9.48007 8 9.39423 8 9.30832C8 9.22241 8 9.13643 8 9.05037C8 8.96431 8 8.87818 8 8.79197C8 8.70576 8 8.61948 8 8.53312C8 8.44676 8 8.36032 8 8.27381C8 8.1873 8 8.10072 8 8.01406C8 7.92739 8 7.84066 8 7.75384C8 7.66703 8 7.58014 8 7.49317C8 7.4062 8 7.31916 8 7.23204C8 7.14491 8 7.05772 8 6.97044C8 6.88316 8 6.79581 8 6.70838C8 6.62095 8 6.53344 8 6.44585C8 6.35827 8 6.2706 8 6.18286C8 6.09511 8 6.00729 8 5.91939C8 5.83149 8 5.74351 8 5.65545C8 5.56739 8 5.47926 8 5.39104C8 5.30282 8 5.21453 8 5.12615C8 5.03777 8 4.94932 8 4.86078C8 4.77225 8 4.68363 8 4.59493C8 4.50624 8 4.41746 8 4.3286C8 4.23974 8 4.1508 8 4.06178C8 3.97276 8 3.88366 8 3.79448C8 3.7053 8 3.61603 8 3.52669C8 3.43734 8 3.34792 8 3.25841C8 3.1689 8 3.07931 8 2.98963C8 2.89996 8 2.8102 8 2.72036C8 2.63052 8 2.5406 8 2.45059C8 2.36059 8 2.2705 8 2.18033C8 2.09016 8 1.9999 8 1.90956C8 1.81922 8 1.7288 8 1.63829C8 1.54778 8 1.45719 8 1.36652C8 1.27584 8 1.18508 8 1.09424C8 1.00339 8 0.91246 8 0.821445C8 0.73043 8 0.639329 8 0.548144C8 0.456958 8 0.365687 8 0.274329C8 0.182972 8 0.0915292 8 0H6ZM150 144V142C149.968 142 149.935 142 149.902 142C149.869 142 149.836 142 149.803 142C149.769 142 149.735 142 149.701 142C149.667 142 149.633 142 149.598 142C149.563 142 149.528 142 149.492 142C149.457 142 149.421 142 149.385 142C149.349 142 149.313 142 149.276 142C149.239 142 149.202 142 149.165 142C149.128 142 149.09 142 149.052 142C149.014 142 148.976 142 148.937 142C148.899 142 148.86 142 148.821 142C148.781 142 148.742 142 148.702 142C148.662 142 148.622 142 148.582 142C148.541 142 148.501 142 148.46 142C148.419 142 148.377 142 148.336 142C148.294 142 148.252 142 148.21 142C148.168 142 148.125 142 148.082 142C148.039 142 147.996 142 147.953 142C147.909 142 147.865 142 147.821 142C147.777 142 147.733 142 147.688 142C147.644 142 147.599 142 147.554 142C147.508 142 147.463 142 147.417 142C147.371 142 147.325 142 147.279 142C147.232 142 147.186 142 147.139 142C147.092 142 147.044 142 146.997 142C146.949 142 146.901 142 146.853 142C146.805 142 146.757 142 146.708 142C146.659 142 146.61 142 146.561 142C146.512 142 146.462 142 146.412 142C146.362 142 146.312 142 146.262 142C146.211 142 146.161 142 146.11 142C146.059 142 146.007 142 145.956 142C145.904 142 145.852 142 145.8 142C145.748 142 145.696 142 145.643 142C145.59 142 145.537 142 145.484 142C145.431 142 145.377 142 145.324 142C145.27 142 145.216 142 145.162 142C145.107 142 145.053 142 144.998 142C144.943 142 144.888 142 144.832 142C144.777 142 144.721 142 144.665 142C144.609 142 144.553 142 144.497 142C144.44 142 144.383 142 144.326 142C144.269 142 144.212 142 144.155 142C144.097 142 144.039 142 143.981 142C143.923 142 143.865 142 143.806 142C143.748 142 143.689 142 143.63 142C143.571 142 143.511 142 143.452 142C143.392 142 143.332 142 143.272 142C143.212 142 143.151 142 143.091 142C143.03 142 142.969 142 142.908 142C142.847 142 142.785 142 142.724 142C142.662 142 142.6 142 142.538 142C142.476 142 142.413 142 142.35 142C142.288 142 142.225 142 142.162 142C142.098 142 142.035 142 141.971 142C141.908 142 141.844 142 141.779 142C141.715 142 141.651 142 141.586 142C141.521 142 141.457 142 141.391 142C141.326 142 141.261 142 141.195 142C141.129 142 141.064 142 140.997 142C140.931 142 140.865 142 140.798 142C140.732 142 140.665 142 140.598 142C140.531 142 140.463 142 140.396 142C140.328 142 140.26 142 140.192 142C140.124 142 140.056 142 139.988 142C139.919 142 139.85 142 139.781 142C139.712 142 139.643 142 139.574 142C139.504 142 139.435 142 139.365 142C139.295 142 139.225 142 139.154 142C139.084 142 139.013 142 138.943 142C138.872 142 138.801 142 138.729 142C138.658 142 138.587 142 138.515 142C138.443 142 138.371 142 138.299 142C138.227 142 138.155 142 138.082 142C138.009 142 137.937 142 137.864 142C137.79 142 137.717 142 137.644 142C137.57 142 137.497 142 137.423 142C137.349 142 137.275 142 137.2 142C137.126 142 137.051 142 136.976 142C136.902 142 136.827 142 136.751 142C136.676 142 136.601 142 136.525 142C136.45 142 136.374 142 136.298 142C136.222 142 136.145 142 136.069 142C135.992 142 135.916 142 135.839 142C135.762 142 135.685 142 135.607 142C135.53 142 135.453 142 135.375 142C135.297 142 135.219 142 135.141 142C135.063 142 134.985 142 134.906 142C134.828 142 134.749 142 134.67 142C134.591 142 134.512 142 134.433 142C134.353 142 134.274 142 134.194 142C134.114 142 134.034 142 133.954 142C133.874 142 133.794 142 133.713 142C133.633 142 133.552 142 133.471 142C133.39 142 133.309 142 133.228 142C133.146 142 133.065 142 132.983 142C132.902 142 132.82 142 132.738 142C132.656 142 132.573 142 132.491 142C132.409 142 132.326 142 132.243 142C132.16 142 132.077 142 131.994 142C131.911 142 131.828 142 131.744 142C131.66 142 131.577 142 131.493 142C131.409 142 131.325 142 131.24 142C131.156 142 131.072 142 130.987 142C130.902 142 130.818 142 130.733 142C130.648 142 130.562 142 130.477 142C130.392 142 130.306 142 130.221 142C130.135 142 130.049 142 129.963 142C129.877 142 129.791 142 129.704 142C129.618 142 129.531 142 129.444 142C129.358 142 129.271 142 129.184 142C129.097 142 129.009 142 128.922 142C128.834 142 128.747 142 128.659 142C128.571 142 128.483 142 128.395 142C128.307 142 128.219 142 128.131 142C128.042 142 127.954 142 127.865 142C127.776 142 127.687 142 127.598 142C127.509 142 127.42 142 127.33 142C127.241 142 127.151 142 127.062 142C126.972 142 126.882 142 126.792 142C126.702 142 126.612 142 126.521 142C126.431 142 126.341 142 126.25 142C126.159 142 126.068 142 125.977 142C125.886 142 125.795 142 125.704 142C125.613 142 125.521 142 125.43 142C125.338 142 125.246 142 125.155 142C125.063 142 124.971 142 124.879 142C124.786 142 124.694 142 124.602 142C124.509 142 124.416 142 124.324 142C124.231 142 124.138 142 124.045 142C123.952 142 123.859 142 123.765 142C123.672 142 123.579 142 123.485 142C123.391 142 123.298 142 123.204 142C123.11 142 123.016 142 122.922 142C122.827 142 122.733 142 122.639 142C122.544 142 122.45 142 122.355 142C122.26 142 122.165 142 122.07 142C121.975 142 121.88 142 121.785 142C121.69 142 121.594 142 121.499 142C121.403 142 121.308 142 121.212 142C121.116 142 121.02 142 120.924 142C120.828 142 120.732 142 120.636 142C120.539 142 120.443 142 120.346 142C120.25 142 120.153 142 120.056 142C119.96 142 119.863 142 119.766 142C119.669 142 119.571 142 119.474 142C119.377 142 119.279 142 119.182 142C119.084 142 118.987 142 118.889 142C118.791 142 118.693 142 118.595 142C118.497 142 118.399 142 118.301 142C118.203 142 118.104 142 118.006 142C117.907 142 117.809 142 117.71 142C117.611 142 117.513 142 117.414 142C117.315 142 117.216 142 117.117 142C117.017 142 116.918 142 116.819 142C116.719 142 116.62 142 116.52 142C116.421 142 116.321 142 116.221 142C116.122 142 116.022 142 115.922 142C115.822 142 115.722 142 115.621 142C115.521 142 115.421 142 115.32 142C115.22 142 115.12 142 115.019 142C114.918 142 114.818 142 114.717 142C114.616 142 114.515 142 114.414 142C114.313 142 114.212 142 114.111 142C114.009 142 113.908 142 113.807 142C113.705 142 113.604 142 113.502 142C113.401 142 113.299 142 113.197 142C113.095 142 112.994 142 112.892 142C112.79 142 112.688 142 112.585 142C112.483 142 112.381 142 112.279 142C112.177 142 112.074 142 111.972 142C111.869 142 111.767 142 111.664 142C111.561 142 111.458 142 111.356 142C111.253 142 111.15 142 111.047 142C110.944 142 110.841 142 110.738 142C110.635 142 110.531 142 110.428 142C110.325 142 110.221 142 110.118 142C110.014 142 109.911 142 109.807 142C109.703 142 109.6 142 109.496 142C109.392 142 109.288 142 109.184 142C109.08 142 108.976 142 108.872 142C108.768 142 108.664 142 108.56 142C108.456 142 108.351 142 108.247 142C108.143 142 108.038 142 107.934 142C107.829 142 107.725 142 107.62 142C107.515 142 107.411 142 107.306 142C107.201 142 107.096 142 106.991 142C106.886 142 106.781 142 106.676 142C106.571 142 106.466 142 106.361 142C106.256 142 106.151 142 106.045 142C105.94 142 105.835 142 105.729 142C105.624 142 105.519 142 105.413 142C105.308 142 105.202 142 105.096 142C104.991 142 104.885 142 104.779 142C104.674 142 104.568 142 104.462 142C104.356 142 104.25 142 104.144 142C104.038 142 103.932 142 103.826 142C103.72 142 103.614 142 103.508 142C103.402 142 103.296 142 103.189 142C103.083 142 102.977 142 102.87 142C102.764 142 102.658 142 102.551 142C102.445 142 102.338 142 102.232 142C102.125 142 102.019 142 101.912 142C101.805 142 101.699 142 101.592 142C101.485 142 101.379 142 101.272 142C101.165 142 101.058 142 100.951 142C100.845 142 100.738 142 100.631 142C100.524 142 100.417 142 100.31 142C100.203 142 100.096 142 99.9889 142C99.8818 142 99.7747 142 99.6676 142C99.5604 142 99.4533 142 99.3461 142C99.2389 142 99.1316 142 99.0244 142C98.9171 142 98.8098 142 98.7025 142C98.5952 142 98.4879 142 98.3805 142C98.2731 142 98.1657 142 98.0583 142C97.9509 142 97.8434 142 97.736 142C97.6285 142 97.521 142 97.4135 142C97.306 142 97.1984 142 97.0909 142C96.9833 142 96.8757 142 96.7681 142C96.6605 142 96.5529 142 96.4452 142C96.3376 142 96.2299 142 96.1222 142C96.0146 142 95.9069 142 95.7992 142C95.6914 142 95.5837 142 95.476 142C95.3682 142 95.2605 142 95.1527 142C95.0449 142 94.9372 142 94.8294 142C94.7216 142 94.6138 142 94.506 142C94.3981 142 94.2903 142 94.1825 142C94.0746 142 93.9668 142 93.8589 142C93.7511 142 93.6432 142 93.5354 142C93.4275 142 93.3196 142 93.2118 142C93.1039 142 92.996 142 92.8881 142C92.7802 142 92.6724 142 92.5645 142C92.4566 142 92.3487 142 92.2408 142C92.1329 142 92.025 142 91.9171 142C91.8092 142 91.7014 142 91.5935 142C91.4856 142 91.3777 142 91.2698 142C91.1619 142 91.0541 142 90.9462 142C90.8383 142 90.7304 142 90.6226 142C90.5147 142 90.4069 142 90.299 142C90.1912 142 90.0833 142 89.9755 142C89.8677 142 89.7599 142 89.6521 142C89.5442 142 89.4364 142 89.3287 142C89.2209 142 89.1131 142 89.0053 142C88.8976 142 88.7898 142 88.6821 142C88.5744 142 88.4666 142 88.3589 142C88.2512 142 88.1436 142 88.0359 142C87.9282 142 87.8206 142 87.7129 142C87.6053 142 87.4977 142 87.3901 142C87.2825 142 87.1749 142 87.0674 142C86.9598 142 86.8523 142 86.7448 142C86.6373 142 86.5298 142 86.4224 142C86.3149 142 86.2075 142 86.1001 142C85.9926 142 85.8853 142 85.7779 142C85.6706 142 85.5632 142 85.4559 142C85.3486 142 85.2414 142 85.1341 142C85.0269 142 84.9197 142 84.8125 142C84.7053 142 84.5982 142 84.4911 142C84.3839 142 84.2769 142 84.1698 142C84.0628 142 83.9558 142 83.8488 142C83.7418 142 83.6349 142 83.528 142C83.4211 142 83.3142 142 83.2074 142C83.1005 142 82.9938 142 82.887 142C82.7803 142 82.6735 142 82.5669 142C82.4602 142 82.3536 142 82.247 142C82.1404 142 82.0339 142 81.9274 142C81.8209 142 81.7144 142 81.608 142C81.5016 142 81.3952 142 81.2889 142C81.1826 142 81.0763 142 80.9701 142C80.8639 142 80.7577 142 80.6516 142C80.5455 142 80.4394 142 80.3334 142C80.2273 142 80.1214 142 80.0154 142C79.9095 142 79.8036 142 79.6978 142C79.592 142 79.4863 142 79.3805 142C79.2748 142 79.1692 142 79.0636 142C78.958 142 78.8525 142 78.747 142C78.6415 142 78.5361 142 78.4307 142C78.3254 142 78.2201 142 78.1148 142C78.0096 142 77.9044 142 77.7993 142C77.6941 142 77.5891 142 77.4841 142C77.3791 142 77.2742 142 77.1693 142C77.0644 142 76.9596 142 76.8549 142C76.7502 142 76.6455 142 76.5409 142C76.4363 142 76.3317 142 76.2273 142C76.1228 142 76.0184 142 75.9141 142C75.8098 142 75.7055 142 75.6013 142C75.4971 142 75.393 142 75.289 142C75.185 142 75.081 142 74.9771 142C74.8732 142 74.7694 142 74.6656 142C74.5619 142 74.4582 142 74.3547 142C74.2511 142 74.1476 142 74.0441 142C73.9407 142 73.8373 142 73.7341 142C73.6308 142 73.5276 142 73.4245 142C73.3214 142 73.2184 142 73.1154 142C73.0125 142 72.9096 142 72.8068 142C72.704 142 72.6013 142 72.4987 142C72.3961 142 72.2936 142 72.1912 142C72.0887 142 71.9864 142 71.8841 142C71.7819 142 71.6797 142 71.5776 142C71.4755 142 71.3735 142 71.2716 142C71.1697 142 71.0679 142 70.9662 142C70.8645 142 70.7628 142 70.6613 142C70.5598 142 70.4583 142 70.357 142C70.2557 142 70.1544 142 70.0533 142C69.9521 142 69.8511 142 69.7501 142C69.6492 142 69.5483 142 69.4475 142C69.3468 142 69.2461 142 69.1456 142C69.045 142 68.9446 142 68.8442 142C68.7438 142 68.6436 142 68.5434 142C68.4433 142 68.3433 142 68.2433 142C68.1434 142 68.0435 142 67.9438 142C67.8441 142 67.7445 142 67.645 142C67.5454 142 67.446 142 67.3467 142C67.2475 142 67.1483 142 67.0492 142C66.9501 142 66.8512 142 66.7523 142C66.6534 142 66.5547 142 66.4561 142C66.3574 142 66.2589 142 66.1605 142C66.0621 142 65.9639 142 65.8657 142C65.7675 142 65.6695 142 65.5715 142C65.4736 142 65.3758 142 65.2781 142C65.1804 142 65.0828 142 64.9854 142C64.8879 142 64.7906 142 64.6933 142C64.5961 142 64.499 142 64.4021 142C64.3051 142 64.2082 142 64.1115 142C64.0148 142 63.9182 142 63.8217 142C63.7253 142 63.6289 142 63.5327 142C63.4365 142 63.3404 142 63.2444 142C63.1484 142 63.0526 142 62.9569 142C62.8612 142 62.7656 142 62.6702 142C62.5747 142 62.4794 142 62.3843 142C62.2891 142 62.194 142 62.0991 142C62.0042 142 61.9094 142 61.8148 142C61.7202 142 61.6256 142 61.5313 142C61.4369 142 61.3427 142 61.2486 142C61.1545 142 61.0605 142 60.9667 142C60.8729 142 60.7792 142 60.6857 142C60.5922 142 60.4988 142 60.4055 142C60.3123 142 60.2192 142 60.1262 142C60.0333 142 59.9404 142 59.8478 142C59.7551 142 59.6626 142 59.5702 142C59.4778 142 59.3856 142 59.2935 142C59.2014 142 59.1095 142 59.0177 142C58.9259 142 58.8342 142 58.7427 142C58.6513 142 58.5599 142 58.4687 142C58.3776 142 58.2865 142 58.1956 142C58.1048 142 58.014 142 57.9235 142C57.8329 142 57.7425 142 57.6522 142C57.562 142 57.4719 142 57.3819 142C57.292 142 57.2022 142 57.1126 142C57.0229 142 56.9335 142 56.8442 142C56.7549 142 56.6657 142 56.5767 142C56.4878 142 56.3989 142 56.3103 142C56.2216 142 56.1331 142 56.0448 142C55.9565 142 55.8683 142 55.7803 142C55.6923 142 55.6045 142 55.5168 142C55.4291 142 55.3417 142 55.2543 142C55.167 142 55.0798 142 54.9929 142C54.9059 142 54.819 142 54.7324 142C54.6458 142 54.5593 142 54.473 142C54.3867 142 54.3005 142 54.2146 142C54.1286 142 54.0429 142 53.9573 142C53.8717 142 53.7862 142 53.701 142C53.6157 142 53.5307 142 53.4458 142C53.3609 142 53.2762 142 53.1916 142C53.1071 142 53.0227 142 52.9386 142C52.8544 142 52.7704 142 52.6866 142C52.6028 142 52.5192 142 52.4357 142C52.3523 142 52.269 142 52.186 142C52.1029 142 52.02 142 51.9373 142C51.8546 142 51.7721 142 51.6898 142C51.6074 142 51.5253 142 51.4434 142C51.3614 142 51.2797 142 51.1981 142C51.1165 142 51.0352 142 50.954 142C50.8728 142 50.7918 142 50.711 142C50.6302 142 50.5496 142 50.4692 142C50.3888 142 50.3086 142 50.2286 142C50.1486 142 50.0688 142 49.9892 142C49.9096 142 49.8302 142 49.7509 142C49.6717 142 49.5927 142 49.5139 142C49.4351 142 49.3565 142 49.278 142C49.1996 142 49.1214 142 49.0434 142C48.9654 142 48.8876 142 48.81 142C48.7324 142 48.655 142 48.5778 142C48.5006 142 48.4237 142 48.3469 142C48.2701 142 48.1935 142 48.1172 142C48.0408 142 47.9647 142 47.8888 142C47.8128 142 47.7371 142 47.6616 142C47.5861 142 47.5108 142 47.4357 142C47.3606 142 47.2857 142 47.2111 142C47.1364 142 47.062 142 46.9877 142C46.9135 142 46.8395 142 46.7657 142C46.6919 142 46.6183 142 46.545 142C46.4716 142 46.3985 142 46.3256 142C46.2527 142 46.18 142 46.1075 142C46.035 142 45.9628 142 45.8907 142C45.8187 142 45.7469 142 45.6753 142C45.6037 142 45.5324 142 45.4612 142C45.3901 142 45.3192 142 45.2485 142C45.1778 142 45.1074 142 45.0372 142C44.967 142 44.897 142 44.8272 142C44.7574 142 44.6879 142 44.6186 142C44.5493 142 44.4802 142 44.4114 142C44.3426 142 44.274 142 44.2056 142C44.1372 142 44.0691 142 44.0012 142C43.9333 142 43.8656 142 43.7982 142C43.7308 142 43.6636 142 43.5966 142C43.5297 142 43.463 142 43.3965 142C43.33 142 43.2638 142 43.1978 142C43.1318 142 43.0661 142 43.0006 142C42.9351 142 42.8698 142 42.8048 142C42.7398 142 42.675 142 42.6104 142C42.5459 142 42.4816 142 42.4176 142C42.3536 142 42.2898 142 42.2262 142C42.1627 142 42.0994 142 42.0363 142C41.9733 142 41.9105 142 41.8479 142C41.7854 142 41.7231 142 41.6611 142C41.599 142 41.5372 142 41.4757 142C41.4142 142 41.3529 142 41.2919 142C41.2308 142 41.1701 142 41.1096 142C41.049 142 40.9888 142 40.9288 142C40.8688 142 40.809 142 40.7496 142C40.6901 142 40.6309 142 40.5719 142C40.5129 142 40.4542 142 40.3958 142C40.3374 142 40.2792 142 40.2213 142C40.1633 142 40.1057 142 40.0483 142C39.9909 142 39.9338 142 39.877 142C39.8201 142 39.7635 142 39.7072 142C39.6509 142 39.5948 142 39.539 142C39.4832 142 39.4277 142 39.3725 142C39.3172 142 39.2623 142 39.2076 142C39.1529 142 39.0984 142 39.0443 142C38.9901 142 38.9362 142 38.8826 142C38.829 142 38.7757 142 38.7226 142C38.6696 142 38.6168 142 38.5643 142C38.5118 142 38.4596 142 38.4076 142C38.3557 142 38.304 142 38.2526 142C38.2012 142 38.1501 142 38.0993 142C38.0485 142 37.9979 142 37.9477 142C37.8974 142 37.8474 142 37.7977 142C37.748 142 37.6986 142 37.6495 142C37.6004 142 37.5515 142 37.503 142C37.4544 142 37.4061 142 37.3582 142C37.3102 142 37.2625 142 37.2151 142C37.1677 142 37.1206 142 37.0738 142C37.027 142 36.9804 142 36.9342 142C36.888 142 36.842 142 36.7964 142C36.7507 142 36.7054 142 36.6603 142C36.6153 142 36.5705 142 36.5261 142C36.4816 142 36.4374 142 36.3936 142C36.3497 142 36.3061 142 36.2628 142C36.2196 142 36.1766 142 36.1339 142C36.0913 142 36.0489 142 36.0068 142C35.9648 142 35.923 142 35.8815 142C35.8401 142 35.7989 142 35.7581 142C35.7172 142 35.6767 142 35.6364 142C35.5962 142 35.5563 142 35.5166 142C35.477 142 35.4377 142 35.3987 142C35.3597 142 35.321 142 35.2826 142C35.2442 142 35.2061 142 35.1684 142C35.1306 142 35.0931 142 35.056 142C35.0189 142 34.982 142 34.9455 142C34.909 142 34.8728 142 34.8369 142C34.8011 142 34.7655 142 34.7302 142C34.695 142 34.6601 142 34.6255 142C34.5909 142 34.5566 142 34.5226 142C34.4886 142 34.455 142 34.4217 142C34.3883 142 34.3553 142 34.3226 142C34.29 142 34.2576 142 34.2256 142C34.1935 142 34.1618 142 34.1304 142C34.0991 142 34.068 142 34.0373 142C34.0065 142 33.9761 142 33.9461 142C33.916 142 33.8863 142 33.8568 142C33.8274 142 33.7983 142 33.7696 142C33.7408 142 33.7124 142 33.6843 142C33.6562 142 33.6285 142 33.6011 142C33.5736 142 33.5466 142 33.5198 142C33.4931 142 33.4666 142 33.4406 142C33.4145 142 33.3888 142 33.3634 142C33.338 142 33.3129 142 33.2882 142C33.2634 142 33.2391 142 33.215 142C33.191 142 33.1673 142 33.1439 142C33.1206 142 33.0975 142 33.0749 142C33.0522 142 33.0299 142 33.0079 142C32.9859 142 32.9643 142 32.943 142C32.9217 142 32.9008 142 32.8802 142C32.8596 142 32.8393 142 32.8194 142C32.7995 142 32.78 142 32.7608 142C32.7416 142 32.7228 142 32.7043 142C32.6858 142 32.6676 142 32.6499 142C32.6321 142 32.6146 142 32.5976 142C32.5805 142 32.5638 142 32.5474 142C32.531 142 32.515 142 32.4994 142C32.4837 142 32.4684 142 32.4535 142C32.4386 142 32.424 142 32.4098 142C32.3956 142 32.3817 142 32.3682 142C32.3548 142 32.3416 142 32.3289 142C32.3161 142 32.3037 142 32.2917 142C32.2796 142 32.268 142 32.2567 142C32.2454 142 32.2344 142 32.2239 142C32.2133 142 32.2031 142 32.1933 142C32.1834 142 32.174 142 32.1649 142C32.1558 142 32.1471 142 32.1387 142C32.1304 142 32.1224 142 32.1148 142C32.1072 142 32.0999 142 32.0931 142C32.0862 142 32.0797 142 32.0736 142C32.0675 142 32.0618 142 32.0564 142C32.0511 142 32.0461 142 32.0415 142C32.0369 142 32.0327 142 32.0289 142C32.025 142 32.0216 142 32.0185 142C32.0154 142 32.0127 142 32.0104 142C32.0081 142 32.0062 142 32.0046 142C32.0031 142 32.0019 142 32.0012 142C32.0004 142 32 142 32 144C32 146 32.0004 146 32.0012 146C32.0019 146 32.0031 146 32.0046 146C32.0062 146 32.0081 146 32.0104 146C32.0127 146 32.0154 146 32.0185 146C32.0216 146 32.025 146 32.0289 146C32.0327 146 32.0369 146 32.0415 146C32.0461 146 32.0511 146 32.0564 146C32.0618 146 32.0675 146 32.0736 146C32.0797 146 32.0862 146 32.0931 146C32.0999 146 32.1072 146 32.1148 146C32.1224 146 32.1304 146 32.1387 146C32.1471 146 32.1558 146 32.1649 146C32.174 146 32.1834 146 32.1933 146C32.2031 146 32.2133 146 32.2239 146C32.2344 146 32.2454 146 32.2567 146C32.268 146 32.2796 146 32.2917 146C32.3037 146 32.3161 146 32.3289 146C32.3416 146 32.3548 146 32.3682 146C32.3817 146 32.3956 146 32.4098 146C32.424 146 32.4386 146 32.4535 146C32.4684 146 32.4837 146 32.4994 146C32.515 146 32.531 146 32.5474 146C32.5638 146 32.5805 146 32.5976 146C32.6146 146 32.6321 146 32.6499 146C32.6676 146 32.6858 146 32.7043 146C32.7228 146 32.7416 146 32.7608 146C32.78 146 32.7995 146 32.8194 146C32.8393 146 32.8596 146 32.8802 146C32.9008 146 32.9217 146 32.943 146C32.9643 146 32.9859 146 33.0079 146C33.0299 146 33.0522 146 33.0749 146C33.0975 146 33.1206 146 33.1439 146C33.1673 146 33.191 146 33.215 146C33.2391 146 33.2634 146 33.2882 146C33.3129 146 33.338 146 33.3634 146C33.3888 146 33.4145 146 33.4406 146C33.4666 146 33.4931 146 33.5198 146C33.5466 146 33.5736 146 33.6011 146C33.6285 146 33.6562 146 33.6843 146C33.7124 146 33.7408 146 33.7696 146C33.7983 146 33.8274 146 33.8568 146C33.8863 146 33.916 146 33.9461 146C33.9761 146 34.0065 146 34.0373 146C34.068 146 34.0991 146 34.1304 146C34.1618 146 34.1935 146 34.2256 146C34.2576 146 34.29 146 34.3226 146C34.3553 146 34.3883 146 34.4217 146C34.455 146 34.4886 146 34.5226 146C34.5566 146 34.5909 146 34.6255 146C34.6601 146 34.695 146 34.7302 146C34.7655 146 34.8011 146 34.8369 146C34.8728 146 34.909 146 34.9455 146C34.982 146 35.0189 146 35.056 146C35.0931 146 35.1306 146 35.1684 146C35.2061 146 35.2442 146 35.2826 146C35.321 146 35.3597 146 35.3987 146C35.4377 146 35.477 146 35.5166 146C35.5563 146 35.5962 146 35.6364 146C35.6767 146 35.7172 146 35.7581 146C35.7989 146 35.8401 146 35.8815 146C35.923 146 35.9648 146 36.0068 146C36.0489 146 36.0913 146 36.1339 146C36.1766 146 36.2196 146 36.2628 146C36.3061 146 36.3497 146 36.3936 146C36.4374 146 36.4816 146 36.5261 146C36.5705 146 36.6153 146 36.6603 146C36.7054 146 36.7507 146 36.7964 146C36.842 146 36.888 146 36.9342 146C36.9804 146 37.027 146 37.0738 146C37.1206 146 37.1677 146 37.2151 146C37.2625 146 37.3102 146 37.3582 146C37.4061 146 37.4544 146 37.503 146C37.5515 146 37.6004 146 37.6495 146C37.6986 146 37.748 146 37.7977 146C37.8474 146 37.8974 146 37.9477 146C37.9979 146 38.0485 146 38.0993 146C38.1501 146 38.2012 146 38.2526 146C38.304 146 38.3557 146 38.4076 146C38.4596 146 38.5118 146 38.5643 146C38.6168 146 38.6696 146 38.7226 146C38.7757 146 38.829 146 38.8826 146C38.9362 146 38.9901 146 39.0443 146C39.0984 146 39.1529 146 39.2076 146C39.2623 146 39.3172 146 39.3725 146C39.4277 146 39.4832 146 39.539 146C39.5948 146 39.6509 146 39.7072 146C39.7635 146 39.8201 146 39.877 146C39.9338 146 39.9909 146 40.0483 146C40.1057 146 40.1633 146 40.2213 146C40.2792 146 40.3374 146 40.3958 146C40.4542 146 40.5129 146 40.5719 146C40.6309 146 40.6901 146 40.7496 146C40.809 146 40.8688 146 40.9288 146C40.9888 146 41.049 146 41.1096 146C41.1701 146 41.2308 146 41.2919 146C41.3529 146 41.4142 146 41.4757 146C41.5372 146 41.599 146 41.6611 146C41.7231 146 41.7854 146 41.8479 146C41.9105 146 41.9733 146 42.0363 146C42.0994 146 42.1627 146 42.2262 146C42.2898 146 42.3536 146 42.4176 146C42.4816 146 42.5459 146 42.6104 146C42.675 146 42.7398 146 42.8048 146C42.8698 146 42.9351 146 43.0006 146C43.0661 146 43.1318 146 43.1978 146C43.2638 146 43.33 146 43.3965 146C43.463 146 43.5297 146 43.5966 146C43.6636 146 43.7308 146 43.7982 146C43.8656 146 43.9333 146 44.0012 146C44.0691 146 44.1372 146 44.2056 146C44.274 146 44.3426 146 44.4114 146C44.4802 146 44.5493 146 44.6186 146C44.6879 146 44.7574 146 44.8272 146C44.897 146 44.967 146 45.0372 146C45.1074 146 45.1778 146 45.2485 146C45.3192 146 45.3901 146 45.4612 146C45.5324 146 45.6037 146 45.6753 146C45.7469 146 45.8187 146 45.8907 146C45.9628 146 46.035 146 46.1075 146C46.18 146 46.2527 146 46.3256 146C46.3985 146 46.4716 146 46.545 146C46.6183 146 46.6919 146 46.7657 146C46.8395 146 46.9135 146 46.9877 146C47.062 146 47.1364 146 47.2111 146C47.2857 146 47.3606 146 47.4357 146C47.5108 146 47.5861 146 47.6616 146C47.7371 146 47.8128 146 47.8888 146C47.9647 146 48.0408 146 48.1172 146C48.1935 146 48.2701 146 48.3469 146C48.4237 146 48.5006 146 48.5778 146C48.655 146 48.7324 146 48.81 146C48.8876 146 48.9654 146 49.0434 146C49.1214 146 49.1996 146 49.278 146C49.3565 146 49.4351 146 49.5139 146C49.5927 146 49.6717 146 49.7509 146C49.8302 146 49.9096 146 49.9892 146C50.0688 146 50.1486 146 50.2286 146C50.3086 146 50.3888 146 50.4692 146C50.5496 146 50.6302 146 50.711 146C50.7918 146 50.8728 146 50.954 146C51.0352 146 51.1165 146 51.1981 146C51.2797 146 51.3614 146 51.4434 146C51.5253 146 51.6074 146 51.6898 146C51.7721 146 51.8546 146 51.9373 146C52.02 146 52.1029 146 52.186 146C52.269 146 52.3523 146 52.4357 146C52.5192 146 52.6028 146 52.6866 146C52.7704 146 52.8544 146 52.9386 146C53.0227 146 53.1071 146 53.1916 146C53.2762 146 53.3609 146 53.4458 146C53.5307 146 53.6157 146 53.701 146C53.7862 146 53.8717 146 53.9573 146C54.0429 146 54.1286 146 54.2146 146C54.3005 146 54.3867 146 54.473 146C54.5593 146 54.6458 146 54.7324 146C54.819 146 54.9059 146 54.9929 146C55.0798 146 55.167 146 55.2543 146C55.3417 146 55.4291 146 55.5168 146C55.6045 146 55.6923 146 55.7803 146C55.8683 146 55.9565 146 56.0448 146C56.1331 146 56.2216 146 56.3103 146C56.3989 146 56.4878 146 56.5767 146C56.6657 146 56.7549 146 56.8442 146C56.9335 146 57.0229 146 57.1126 146C57.2022 146 57.292 146 57.3819 146C57.4719 146 57.562 146 57.6522 146C57.7425 146 57.8329 146 57.9235 146C58.014 146 58.1048 146 58.1956 146C58.2865 146 58.3776 146 58.4687 146C58.5599 146 58.6513 146 58.7427 146C58.8342 146 58.9259 146 59.0177 146C59.1095 146 59.2014 146 59.2935 146C59.3856 146 59.4778 146 59.5702 146C59.6626 146 59.7551 146 59.8478 146C59.9404 146 60.0333 146 60.1262 146C60.2192 146 60.3123 146 60.4055 146C60.4988 146 60.5922 146 60.6857 146C60.7792 146 60.8729 146 60.9667 146C61.0605 146 61.1545 146 61.2486 146C61.3427 146 61.4369 146 61.5313 146C61.6256 146 61.7202 146 61.8148 146C61.9094 146 62.0042 146 62.0991 146C62.194 146 62.2891 146 62.3843 146C62.4794 146 62.5747 146 62.6702 146C62.7656 146 62.8612 146 62.9569 146C63.0526 146 63.1484 146 63.2444 146C63.3404 146 63.4365 146 63.5327 146C63.6289 146 63.7253 146 63.8217 146C63.9182 146 64.0148 146 64.1115 146C64.2082 146 64.3051 146 64.4021 146C64.499 146 64.5961 146 64.6933 146C64.7906 146 64.8879 146 64.9854 146C65.0828 146 65.1804 146 65.2781 146C65.3758 146 65.4736 146 65.5715 146C65.6695 146 65.7675 146 65.8657 146C65.9639 146 66.0621 146 66.1605 146C66.2589 146 66.3574 146 66.4561 146C66.5547 146 66.6534 146 66.7523 146C66.8512 146 66.9501 146 67.0492 146C67.1483 146 67.2475 146 67.3467 146C67.446 146 67.5454 146 67.645 146C67.7445 146 67.8441 146 67.9438 146C68.0435 146 68.1434 146 68.2433 146C68.3433 146 68.4433 146 68.5434 146C68.6436 146 68.7438 146 68.8442 146C68.9446 146 69.045 146 69.1456 146C69.2461 146 69.3468 146 69.4475 146C69.5483 146 69.6492 146 69.7501 146C69.8511 146 69.9521 146 70.0533 146C70.1544 146 70.2557 146 70.357 146C70.4583 146 70.5598 146 70.6613 146C70.7628 146 70.8645 146 70.9662 146C71.0679 146 71.1697 146 71.2716 146C71.3735 146 71.4755 146 71.5776 146C71.6797 146 71.7819 146 71.8841 146C71.9864 146 72.0887 146 72.1912 146C72.2936 146 72.3961 146 72.4987 146C72.6013 146 72.704 146 72.8068 146C72.9096 146 73.0125 146 73.1154 146C73.2184 146 73.3214 146 73.4245 146C73.5276 146 73.6308 146 73.7341 146C73.8373 146 73.9407 146 74.0441 146C74.1476 146 74.2511 146 74.3547 146C74.4582 146 74.5619 146 74.6656 146C74.7694 146 74.8732 146 74.9771 146C75.081 146 75.185 146 75.289 146C75.393 146 75.4971 146 75.6013 146C75.7055 146 75.8098 146 75.9141 146C76.0184 146 76.1228 146 76.2273 146C76.3317 146 76.4363 146 76.5409 146C76.6455 146 76.7502 146 76.8549 146C76.9596 146 77.0644 146 77.1693 146C77.2742 146 77.3791 146 77.4841 146C77.5891 146 77.6941 146 77.7993 146C77.9044 146 78.0096 146 78.1148 146C78.2201 146 78.3254 146 78.4307 146C78.5361 146 78.6415 146 78.747 146C78.8525 146 78.958 146 79.0636 146C79.1692 146 79.2748 146 79.3805 146C79.4863 146 79.592 146 79.6978 146C79.8036 146 79.9095 146 80.0154 146C80.1214 146 80.2273 146 80.3334 146C80.4394 146 80.5455 146 80.6516 146C80.7577 146 80.8639 146 80.9701 146C81.0763 146 81.1826 146 81.2889 146C81.3952 146 81.5016 146 81.608 146C81.7144 146 81.8209 146 81.9274 146C82.0339 146 82.1404 146 82.247 146C82.3536 146 82.4602 146 82.5669 146C82.6735 146 82.7803 146 82.887 146C82.9938 146 83.1005 146 83.2074 146C83.3142 146 83.4211 146 83.528 146C83.6349 146 83.7418 146 83.8488 146C83.9558 146 84.0628 146 84.1698 146C84.2769 146 84.3839 146 84.4911 146C84.5982 146 84.7053 146 84.8125 146C84.9197 146 85.0269 146 85.1341 146C85.2414 146 85.3486 146 85.4559 146C85.5632 146 85.6706 146 85.7779 146C85.8853 146 85.9926 146 86.1001 146C86.2075 146 86.3149 146 86.4224 146C86.5298 146 86.6373 146 86.7448 146C86.8523 146 86.9598 146 87.0674 146C87.1749 146 87.2825 146 87.3901 146C87.4977 146 87.6053 146 87.7129 146C87.8206 146 87.9282 146 88.0359 146C88.1436 146 88.2512 146 88.3589 146C88.4666 146 88.5744 146 88.6821 146C88.7898 146 88.8976 146 89.0053 146C89.1131 146 89.2209 146 89.3287 146C89.4364 146 89.5442 146 89.6521 146C89.7599 146 89.8677 146 89.9755 146C90.0833 146 90.1912 146 90.299 146C90.4069 146 90.5147 146 90.6226 146C90.7304 146 90.8383 146 90.9462 146C91.0541 146 91.1619 146 91.2698 146C91.3777 146 91.4856 146 91.5935 146C91.7014 146 91.8092 146 91.9171 146C92.025 146 92.1329 146 92.2408 146C92.3487 146 92.4566 146 92.5645 146C92.6724 146 92.7802 146 92.8881 146C92.996 146 93.1039 146 93.2118 146C93.3196 146 93.4275 146 93.5354 146C93.6432 146 93.7511 146 93.8589 146C93.9668 146 94.0746 146 94.1825 146C94.2903 146 94.3981 146 94.506 146C94.6138 146 94.7216 146 94.8294 146C94.9372 146 95.0449 146 95.1527 146C95.2605 146 95.3682 146 95.476 146C95.5837 146 95.6914 146 95.7992 146C95.9069 146 96.0146 146 96.1222 146C96.2299 146 96.3376 146 96.4452 146C96.5529 146 96.6605 146 96.7681 146C96.8757 146 96.9833 146 97.0909 146C97.1984 146 97.306 146 97.4135 146C97.521 146 97.6285 146 97.736 146C97.8434 146 97.9509 146 98.0583 146C98.1657 146 98.2731 146 98.3805 146C98.4879 146 98.5952 146 98.7025 146C98.8098 146 98.9171 146 99.0244 146C99.1316 146 99.2389 146 99.3461 146C99.4533 146 99.5604 146 99.6676 146C99.7747 146 99.8818 146 99.9889 146C100.096 146 100.203 146 100.31 146C100.417 146 100.524 146 100.631 146C100.738 146 100.845 146 100.951 146C101.058 146 101.165 146 101.272 146C101.379 146 101.485 146 101.592 146C101.699 146 101.805 146 101.912 146C102.019 146 102.125 146 102.232 146C102.338 146 102.445 146 102.551 146C102.658 146 102.764 146 102.87 146C102.977 146 103.083 146 103.189 146C103.296 146 103.402 146 103.508 146C103.614 146 103.72 146 103.826 146C103.932 146 104.038 146 104.144 146C104.25 146 104.356 146 104.462 146C104.568 146 104.674 146 104.779 146C104.885 146 104.991 146 105.096 146C105.202 146 105.308 146 105.413 146C105.519 146 105.624 146 105.729 146C105.835 146 105.94 146 106.045 146C106.151 146 106.256 146 106.361 146C106.466 146 106.571 146 106.676 146C106.781 146 106.886 146 106.991 146C107.096 146 107.201 146 107.306 146C107.411 146 107.515 146 107.62 146C107.725 146 107.829 146 107.934 146C108.038 146 108.143 146 108.247 146C108.351 146 108.456 146 108.56 146C108.664 146 108.768 146 108.872 146C108.976 146 109.08 146 109.184 146C109.288 146 109.392 146 109.496 146C109.6 146 109.703 146 109.807 146C109.911 146 110.014 146 110.118 146C110.221 146 110.325 146 110.428 146C110.531 146 110.635 146 110.738 146C110.841 146 110.944 146 111.047 146C111.15 146 111.253 146 111.356 146C111.458 146 111.561 146 111.664 146C111.767 146 111.869 146 111.972 146C112.074 146 112.177 146 112.279 146C112.381 146 112.483 146 112.585 146C112.688 146 112.79 146 112.892 146C112.994 146 113.095 146 113.197 146C113.299 146 113.401 146 113.502 146C113.604 146 113.705 146 113.807 146C113.908 146 114.009 146 114.111 146C114.212 146 114.313 146 114.414 146C114.515 146 114.616 146 114.717 146C114.818 146 114.918 146 115.019 146C115.12 146 115.22 146 115.32 146C115.421 146 115.521 146 115.621 146C115.722 146 115.822 146 115.922 146C116.022 146 116.122 146 116.221 146C116.321 146 116.421 146 116.52 146C116.62 146 116.719 146 116.819 146C116.918 146 117.017 146 117.117 146C117.216 146 117.315 146 117.414 146C117.513 146 117.611 146 117.71 146C117.809 146 117.907 146 118.006 146C118.104 146 118.203 146 118.301 146C118.399 146 118.497 146 118.595 146C118.693 146 118.791 146 118.889 146C118.987 146 119.084 146 119.182 146C119.279 146 119.377 146 119.474 146C119.571 146 119.669 146 119.766 146C119.863 146 119.96 146 120.056 146C120.153 146 120.25 146 120.346 146C120.443 146 120.539 146 120.636 146C120.732 146 120.828 146 120.924 146C121.02 146 121.116 146 121.212 146C121.308 146 121.403 146 121.499 146C121.594 146 121.69 146 121.785 146C121.88 146 121.975 146 122.07 146C122.165 146 122.26 146 122.355 146C122.45 146 122.544 146 122.639 146C122.733 146 122.827 146 122.922 146C123.016 146 123.11 146 123.204 146C123.298 146 123.391 146 123.485 146C123.579 146 123.672 146 123.765 146C123.859 146 123.952 146 124.045 146C124.138 146 124.231 146 124.324 146C124.416 146 124.509 146 124.602 146C124.694 146 124.786 146 124.879 146C124.971 146 125.063 146 125.155 146C125.246 146 125.338 146 125.43 146C125.521 146 125.613 146 125.704 146C125.795 146 125.886 146 125.977 146C126.068 146 126.159 146 126.25 146C126.341 146 126.431 146 126.521 146C126.612 146 126.702 146 126.792 146C126.882 146 126.972 146 127.062 146C127.151 146 127.241 146 127.33 146C127.42 146 127.509 146 127.598 146C127.687 146 127.776 146 127.865 146C127.954 146 128.042 146 128.131 146C128.219 146 128.307 146 128.395 146C128.483 146 128.571 146 128.659 146C128.747 146 128.834 146 128.922 146C129.009 146 129.097 146 129.184 146C129.271 146 129.358 146 129.444 146C129.531 146 129.618 146 129.704 146C129.791 146 129.877 146 129.963 146C130.049 146 130.135 146 130.221 146C130.306 146 130.392 146 130.477 146C130.562 146 130.648 146 130.733 146C130.818 146 130.902 146 130.987 146C131.072 146 131.156 146 131.24 146C131.325 146 131.409 146 131.493 146C131.577 146 131.66 146 131.744 146C131.828 146 131.911 146 131.994 146C132.077 146 132.16 146 132.243 146C132.326 146 132.409 146 132.491 146C132.573 146 132.656 146 132.738 146C132.82 146 132.902 146 132.983 146C133.065 146 133.146 146 133.228 146C133.309 146 133.39 146 133.471 146C133.552 146 133.633 146 133.713 146C133.794 146 133.874 146 133.954 146C134.034 146 134.114 146 134.194 146C134.274 146 134.353 146 134.433 146C134.512 146 134.591 146 134.67 146C134.749 146 134.828 146 134.906 146C134.985 146 135.063 146 135.141 146C135.219 146 135.297 146 135.375 146C135.453 146 135.53 146 135.607 146C135.685 146 135.762 146 135.839 146C135.916 146 135.992 146 136.069 146C136.145 146 136.222 146 136.298 146C136.374 146 136.45 146 136.525 146C136.601 146 136.676 146 136.751 146C136.827 146 136.902 146 136.976 146C137.051 146 137.126 146 137.2 146C137.275 146 137.349 146 137.423 146C137.497 146 137.57 146 137.644 146C137.717 146 137.79 146 137.864 146C137.937 146 138.009 146 138.082 146C138.155 146 138.227 146 138.299 146C138.371 146 138.443 146 138.515 146C138.587 146 138.658 146 138.729 146C138.801 146 138.872 146 138.943 146C139.013 146 139.084 146 139.154 146C139.225 146 139.295 146 139.365 146C139.435 146 139.504 146 139.574 146C139.643 146 139.712 146 139.781 146C139.85 146 139.919 146 139.988 146C140.056 146 140.124 146 140.192 146C140.26 146 140.328 146 140.396 146C140.463 146 140.531 146 140.598 146C140.665 146 140.732 146 140.798 146C140.865 146 140.931 146 140.997 146C141.064 146 141.129 146 141.195 146C141.261 146 141.326 146 141.391 146C141.457 146 141.521 146 141.586 146C141.651 146 141.715 146 141.779 146C141.844 146 141.908 146 141.971 146C142.035 146 142.098 146 142.162 146C142.225 146 142.288 146 142.35 146C142.413 146 142.476 146 142.538 146C142.6 146 142.662 146 142.724 146C142.785 146 142.847 146 142.908 146C142.969 146 143.03 146 143.091 146C143.151 146 143.212 146 143.272 146C143.332 146 143.392 146 143.452 146C143.511 146 143.571 146 143.63 146C143.689 146 143.748 146 143.806 146C143.865 146 143.923 146 143.981 146C144.039 146 144.097 146 144.155 146C144.212 146 144.269 146 144.326 146C144.383 146 144.44 146 144.497 146C144.553 146 144.609 146 144.665 146C144.721 146 144.777 146 144.832 146C144.888 146 144.943 146 144.998 146C145.053 146 145.107 146 145.162 146C145.216 146 145.27 146 145.324 146C145.377 146 145.431 146 145.484 146C145.537 146 145.59 146 145.643 146C145.696 146 145.748 146 145.8 146C145.852 146 145.904 146 145.956 146C146.007 146 146.059 146 146.11 146C146.161 146 146.211 146 146.262 146C146.312 146 146.362 146 146.412 146C146.462 146 146.512 146 146.561 146C146.61 146 146.659 146 146.708 146C146.757 146 146.805 146 146.853 146C146.901 146 146.949 146 146.997 146C147.044 146 147.092 146 147.139 146C147.186 146 147.232 146 147.279 146C147.325 146 147.371 146 147.417 146C147.463 146 147.508 146 147.554 146C147.599 146 147.644 146 147.688 146C147.733 146 147.777 146 147.821 146C147.865 146 147.909 146 147.953 146C147.996 146 148.039 146 148.082 146C148.125 146 148.168 146 148.21 146C148.252 146 148.294 146 148.336 146C148.377 146 148.419 146 148.46 146C148.501 146 148.541 146 148.582 146C148.622 146 148.662 146 148.702 146C148.742 146 148.781 146 148.821 146C148.86 146 148.899 146 148.937 146C148.976 146 149.014 146 149.052 146C149.09 146 149.128 146 149.165 146C149.202 146 149.239 146 149.276 146C149.313 146 149.349 146 149.385 146C149.421 146 149.457 146 149.492 146C149.528 146 149.563 146 149.598 146C149.633 146 149.667 146 149.701 146C149.735 146 149.769 146 149.803 146C149.836 146 149.869 146 149.902 146C149.935 146 149.968 146 150 146V144Z" fill="black"/>
</svg>
