<svg width="150" height="150" viewBox="0 0 150 150" fill="none" xmlns="http://www.w3.org/2000/svg">
<path d="M19.5377 106.854C18.1519 107.818 16.5297 110.258 17.9265 111.988C18.559 112.771 22.5653 113.843 21.5182 115.589C19.4761 118.994 9.897 113.281 9.06664 107.196C8.77958 105.093 8.00739 102.068 8.05743 99.7462C8.06851 99.2331 8.05673 99.246 8.05743 98.7778C8.05852 98.0376 8.06955 97.9127 8.05743 97.8093V0H4.04677L4.02344 100C3.99331 101.493 4.04859 103.218 4.0498 104.308C4.0498 102.566 4.04894 104.175 4.0498 104.308C3.95787 104.308 3.68023 114.918 11.5499 120.449C15.7488 123.4 28.0191 122.657 28.0191 113.052C28.0189 109.635 24.3543 103.507 19.5377 106.854Z" fill="black"/>
<path d="M38.3934 113.494C41.9853 109.661 55.671 107.525 56.653 105.614C57.8935 103.2 55.4202 103.307 54.7905 101.834C54.395 100.909 56.441 97.8543 56.8277 97.103C57.441 95.9114 58.1447 94.66 57.0832 93.5967C55.8391 92.3502 54.414 92.9739 53.1809 93.7595C51.9649 94.5342 50.4567 94.8631 49.2321 95.5896C47.8554 96.4062 47.4011 92.4976 45.5944 92.7398C43.79 92.9817 41.0606 98.5782 41.215 100.253C41.3135 101.324 39.1399 107.463 38.3369 108.604C37.5018 109.79 36.602 111.271 35.8672 112.533C34.6382 114.645 37.4956 114.451 38.3934 113.494Z" fill="black"/>
<path d="M16.3829 101.647C17.8046 101.129 19.8797 98.1962 26.2563 98.8062C28.7046 99.0403 32.2023 103.55 32.1856 105.918C32.1762 107.234 31.6709 115.363 33.8047 111.532C35.3618 108.736 35.8105 105.79 35.8105 102.557C35.821 98.6767 33.5525 94.8811 33.5564 93.7623C33.5671 90.7712 28.6896 88.2696 26.876 91.2085C25.8269 92.9084 25.4751 92.936 23.3662 92.906C22.4941 92.8936 15.9753 94.3519 15.4344 97.5103C15.3382 98.0721 14.8926 102.191 16.3829 101.647Z" fill="black"/>
<path d="M35.8105 102.557C35.8107 102.557 35.8137 101.39 35.8105 102.557V102.557Z" fill="black"/>
<path d="M18.6674 136.216C21.1281 136.041 22.9811 133.904 22.8062 131.444C22.6313 128.983 20.4947 127.13 18.0341 127.305C15.5734 127.48 13.7204 129.616 13.8953 132.077C14.0702 134.538 16.2068 136.391 18.6674 136.216Z" fill="black"/>
<path d="M28.4231 123.405C29.4194 123.405 30.227 122.597 30.227 121.601C30.227 120.605 29.4194 119.797 28.4231 119.797C27.4268 119.797 26.6191 120.605 26.6191 121.601C26.6191 122.597 27.4268 123.405 28.4231 123.405Z" fill="black"/>
<path d="M46.1277 145.763C46.1244 145.763 46.121 145.762 46.1177 145.762C46.1177 145.762 46.1218 145.763 46.1277 145.763Z" fill="black"/>
<path d="M47.2607 114.193C47.2607 114.193 48.4272 114.19 47.2607 114.193V114.193Z" fill="black"/>
<path d="M47.2606 114.193C44.0279 114.193 41.082 114.641 38.2863 116.197C34.4553 118.33 42.5844 117.826 43.8997 117.817C46.2679 117.801 50.7775 121.298 51.0118 123.746C51.6221 130.122 48.6894 132.196 48.1711 133.617C47.6278 135.107 51.7463 134.662 52.3081 134.566C55.4664 134.026 56.9244 127.509 56.912 126.637C56.8818 124.528 56.9094 124.177 58.6091 123.128C61.5478 121.315 59.0461 116.438 56.055 116.449C54.936 116.452 51.1404 114.184 47.2606 114.193Z" fill="black"/>
<path d="M150 142H99.5H50C47.6212 142.004 43.8278 141.245 41.6718 140.95C35.5947 140.119 30.9807 130.537 34.3809 128.497C36.1244 127.451 37.1955 131.455 37.9776 132.087C39.705 133.484 42.1424 131.863 43.1042 130.478C46.4475 125.665 40.3273 122.001 36.914 122C27.3219 121.998 26.58 134.262 29.5277 138.459C35.0522 146.325 45.5 145.988 45.5 145.988C45.4593 146.015 47.2385 145.988 45.5 145.988C45.5 145.988 49.3136 145.988 51 145.988L150 146V142Z" fill="black"/>
</svg>
